 <svg version="1.0" xmlns="http://www.w3.org/2000/svg" width="700.000000pt" height="700.000000pt" viewBox="0 0 700.000000 700.000000" preserveAspectRatio="xMidYMid meet">
<metadata>
Created by potrace 1.12, written by Peter Selinger 2001-2015
</metadata>
<g transform="translate(0.000000,700.000000) scale(0.100000,-0.100000)" fill="#000000" stroke="none">
<path d="M1755 5561 c-59 -15 -99 -44 -187 -134 -126 -130 -133 -144 -133
-292 0 -138 11 -169 85 -240 23 -22 62 -68 87 -102 41 -57 157 -173 173 -173
4 0 35 -34 69 -75 33 -41 90 -97 125 -125 36 -28 86 -80 112 -116 27 -39 71
-84 108 -110 33 -24 88 -77 121 -116 34 -40 93 -99 133 -133 39 -33 90 -83
112 -112 21 -28 71 -77 110 -108 90 -72 103 -97 108 -211 6 -124 -11 -162
-108 -239 -39 -31 -92 -83 -116 -114 -25 -32 -74 -79 -110 -105 -38 -29 -88
-79 -122 -124 -31 -42 -84 -96 -117 -122 -33 -26 -86 -78 -118 -118 -31 -39
-79 -86 -106 -106 -48 -35 -102 -91 -153 -158 -15 -20 -55 -57 -89 -83 -68
-51 -99 -85 -141 -152 -16 -24 -48 -65 -72 -91 -52 -57 -70 -90 -85 -160 -15
-73 -14 -149 4 -208 13 -43 29 -64 129 -157 63 -59 132 -115 153 -124 27 -11
68 -16 138 -17 122 0 165 17 245 94 30 29 78 68 105 85 51 33 127 108 159 158
10 15 49 49 86 76 37 28 85 71 106 98 21 26 82 91 135 143 53 52 109 112 124
133 15 20 51 54 79 74 71 51 111 89 162 155 24 31 66 72 93 93 28 20 79 71
114 114 80 96 113 113 229 119 118 6 158 -13 229 -110 29 -38 76 -87 105 -109
29 -21 70 -60 91 -86 69 -85 125 -143 160 -164 18 -12 60 -56 93 -99 35 -46
86 -98 127 -128 38 -28 90 -78 115 -111 26 -33 76 -84 112 -114 36 -29 88 -83
115 -119 34 -44 74 -82 123 -114 40 -27 101 -74 135 -106 73 -67 113 -82 234
-82 128 0 155 14 286 147 129 131 138 150 138 287 0 121 -13 158 -82 223 -30
28 -79 89 -109 134 -36 54 -76 98 -118 131 -35 28 -85 78 -110 111 -26 33 -74
81 -106 106 -33 26 -85 78 -116 116 -31 39 -88 94 -128 124 -45 33 -93 81
-124 123 -28 37 -78 90 -111 116 -34 26 -81 74 -106 106 -25 33 -72 80 -104
104 -80 62 -107 96 -121 157 -15 63 -7 165 16 215 10 20 47 60 85 90 37 29 92
81 121 114 29 33 79 81 110 105 31 24 82 78 114 119 33 45 84 96 124 126 37
28 87 76 111 107 24 30 74 80 111 109 37 30 82 73 100 96 18 24 81 90 139 148
59 58 117 121 130 140 12 19 52 67 89 105 56 58 69 79 80 124 17 73 9 225 -15
271 -29 56 -203 236 -249 257 -30 14 -65 18 -141 18 -138 0 -182 -15 -265 -89
-37 -34 -94 -81 -126 -106 -32 -25 -81 -72 -108 -105 -28 -34 -82 -85 -119
-114 -37 -29 -90 -83 -118 -119 -27 -37 -80 -92 -118 -122 -38 -30 -92 -83
-121 -118 -28 -34 -79 -85 -114 -112 -34 -27 -82 -77 -107 -110 -24 -34 -75
-86 -112 -115 -38 -29 -93 -85 -124 -124 -68 -89 -96 -104 -198 -108 -123 -5
-163 13 -250 114 -38 45 -93 100 -122 122 -28 22 -77 71 -107 109 -31 38 -82
88 -115 110 -35 25 -81 71 -112 113 -28 39 -83 95 -121 126 -38 30 -92 83
-121 118 -29 34 -77 83 -107 107 -30 25 -86 80 -124 122 -38 42 -89 91 -115
108 -25 17 -74 58 -108 90 -83 79 -134 100 -248 104 -49 2 -103 0 -120 -5z"></path>
</g>
</svg>