 <svg version="1.0" xmlns="http://www.w3.org/2000/svg" width="700.000000pt" height="700.000000pt" viewBox="0 0 700.000000 700.000000" preserveAspectRatio="xMidYMid meet">
<metadata>
Created by potrace 1.12, written by Peter Selinger 2001-2015
</metadata>
<g transform="translate(0.000000,700.000000) scale(0.100000,-0.100000)" fill="#000000" stroke="none">
<path d="M1566 6158 c-62 -62 -66 -73 -66 -201 0 -132 -11 -172 -51 -192 -27
-15 -76 -59 -109 -100 -13 -16 -16 -280 -21 -2194 -5 -2366 -1 -2193 -57
-2351 -26 -73 -40 -277 -20 -303 13 -17 117 -18 2250 -17 1230 0 2243 3 2252
6 9 3 19 18 23 32 11 45 -13 252 -37 312 -12 30 -26 75 -33 100 -8 32 -12 665
-16 2221 l-6 2176 -40 45 c-22 25 -58 56 -81 70 -49 31 -54 48 -54 200 0 122
-4 134 -66 196 l-43 42 -1891 0 -1891 0 -43 -42z m3761 -131 c13 -13 19 -38
22 -97 4 -90 -2 -121 -25 -144 -14 -14 -194 -16 -1822 -16 -994 0 -1812 4
-1818 8 -24 16 -34 54 -34 129 0 88 14 124 50 134 14 4 831 6 1817 6 1704 -2
1793 -3 1810 -20z m169 -431 c19 -14 19 -51 24 -2148 5 -2021 6 -2136 23
-2188 30 -90 57 -203 57 -236 0 -19 -8 -38 -21 -50 -21 -19 -69 -19 -2068 -19
-1125 0 -2058 3 -2073 8 -18 5 -30 16 -34 34 -9 34 10 138 44 238 l27 80 5
2132 c3 1172 7 2133 10 2136 29 25 112 26 2016 27 1686 0 1973 -2 1990 -14z"></path>
<path d="M2522 5099 c-34 -33 -54 -62 -58 -84 -7 -41 11 -102 36 -115 33 -18
42 -70 50 -300 5 -180 10 -234 25 -270 9 -25 31 -83 47 -130 16 -46 37 -94 47
-105 10 -11 30 -43 44 -70 31 -62 192 -227 256 -261 25 -14 61 -35 78 -48 18
-13 57 -29 85 -36 29 -7 85 -26 123 -44 70 -31 71 -31 245 -31 174 0 175 0
245 31 39 18 94 37 122 44 29 6 70 25 92 40 21 16 56 37 77 48 60 31 221 197
254 263 16 30 35 61 44 68 9 7 25 45 37 85 12 39 30 90 40 114 31 66 39 133
39 302 0 191 10 251 49 295 60 69 53 131 -24 204 -50 48 -57 51 -105 51 -48 0
-54 -3 -100 -51 -72 -75 -78 -137 -19 -204 42 -47 52 -123 44 -315 -7 -169
-19 -252 -42 -288 -8 -13 -27 -54 -42 -92 -30 -74 -66 -123 -152 -209 -92 -91
-175 -151 -210 -151 -6 0 -44 -17 -83 -37 l-71 -38 -195 0 -195 0 -55 29 c-30
16 -78 37 -108 47 -57 20 -109 59 -205 156 -95 95 -126 136 -146 194 -10 30
-31 77 -45 105 -22 42 -29 72 -38 180 -12 146 -5 352 13 386 7 13 22 34 35 47
27 27 40 79 28 114 -10 29 -74 101 -103 116 -11 6 -39 11 -64 11 -39 0 -49 -5
-95 -51z"></path>
<path d="M1705 1456 c-14 -10 -20 -26 -20 -55 0 -48 10 -60 57 -67 44 -8 78
21 78 66 0 58 -68 91 -115 56z"></path>
<path d="M2050 1450 c-11 -11 -20 -33 -20 -50 0 -17 9 -39 20 -50 11 -11 33
-20 50 -20 17 0 39 9 50 20 11 11 20 33 20 50 0 17 -9 39 -20 50 -11 11 -33
20 -50 20 -17 0 -39 -9 -50 -20z"></path>
<path d="M2400 1450 c-11 -11 -20 -33 -20 -50 0 -17 9 -39 20 -50 11 -11 33
-20 50 -20 17 0 39 9 50 20 11 11 20 33 20 50 0 17 -9 39 -20 50 -11 11 -33
20 -50 20 -17 0 -39 -9 -50 -20z"></path>
<path d="M2750 1450 c-11 -11 -20 -33 -20 -50 0 -17 9 -39 20 -50 11 -11 33
-20 50 -20 17 0 39 9 50 20 11 11 20 33 20 50 0 17 -9 39 -20 50 -11 11 -33
20 -50 20 -17 0 -39 -9 -50 -20z"></path>
<path d="M3100 1450 c-11 -11 -20 -33 -20 -50 0 -17 9 -39 20 -50 11 -11 33
-20 50 -20 17 0 39 9 50 20 11 11 20 33 20 50 0 17 -9 39 -20 50 -11 11 -33
20 -50 20 -17 0 -39 -9 -50 -20z"></path>
<path d="M3450 1450 c-11 -11 -20 -33 -20 -50 0 -17 9 -39 20 -50 11 -11 33
-20 50 -20 17 0 39 9 50 20 11 11 20 33 20 50 0 17 -9 39 -20 50 -11 11 -33
20 -50 20 -17 0 -39 -9 -50 -20z"></path>
<path d="M3800 1450 c-11 -11 -20 -33 -20 -50 0 -17 9 -39 20 -50 11 -11 33
-20 50 -20 17 0 39 9 50 20 11 11 20 33 20 50 0 17 -9 39 -20 50 -11 11 -33
20 -50 20 -17 0 -39 -9 -50 -20z"></path>
<path d="M4150 1450 c-11 -11 -20 -33 -20 -50 0 -17 9 -39 20 -50 11 -11 33
-20 50 -20 17 0 39 9 50 20 11 11 20 33 20 50 0 17 -9 39 -20 50 -11 11 -33
20 -50 20 -17 0 -39 -9 -50 -20z"></path>
<path d="M4500 1450 c-11 -11 -20 -33 -20 -50 0 -17 9 -39 20 -50 11 -11 33
-20 50 -20 17 0 39 9 50 20 11 11 20 33 20 50 0 17 -9 39 -20 50 -11 11 -33
20 -50 20 -17 0 -39 -9 -50 -20z"></path>
<path d="M4850 1450 c-11 -11 -20 -33 -20 -50 0 -17 9 -39 20 -50 11 -11 33
-20 50 -20 17 0 39 9 50 20 11 11 20 33 20 50 0 17 -9 39 -20 50 -11 11 -33
20 -50 20 -17 0 -39 -9 -50 -20z"></path>
<path d="M5200 1450 c-41 -41 -12 -120 44 -120 40 0 70 32 70 75 0 62 -70 89
-114 45z"></path>
</g>
</svg>