 <svg version="1.0" xmlns="http://www.w3.org/2000/svg" width="700.000000pt" height="700.000000pt" viewBox="0 0 700.000000 700.000000" preserveAspectRatio="xMidYMid meet">
<metadata>
Created by potrace 1.12, written by Peter Selinger 2001-2015
</metadata>
<g transform="translate(0.000000,700.000000) scale(0.100000,-0.100000)" fill="#000000" stroke="none">
<path d="M1189 5460 c-68 -5 -97 -13 -135 -35 -27 -15 -71 -39 -99 -53 -63
-31 -172 -140 -206 -206 -15 -28 -39 -76 -55 -106 l-29 -55 0 -1505 0 -1505
24 -45 c13 -25 38 -72 55 -106 37 -72 148 -188 202 -210 22 -9 65 -32 96 -51
51 -31 67 -36 160 -44 122 -10 4486 -10 4604 0 55 5 95 15 125 31 24 12 71 37
105 54 106 54 185 147 276 326 l23 45 3 1343 c2 954 -1 1355 -9 1384 -6 25
-23 52 -42 67 -17 14 -45 40 -62 58 -73 77 -200 85 -290 18 -16 -12 -50 -32
-75 -45 -25 -12 -62 -38 -82 -56 -21 -18 -63 -47 -95 -63 -32 -16 -69 -41 -83
-56 -14 -15 -45 -37 -70 -50 -25 -13 -54 -33 -65 -45 -11 -12 -50 -40 -88 -62
-37 -22 -82 -52 -100 -67 -18 -16 -51 -38 -74 -50 -23 -11 -56 -35 -73 -51
-17 -17 -57 -43 -88 -59 -31 -16 -66 -39 -77 -51 -11 -12 -50 -39 -86 -61 -37
-21 -69 -45 -72 -52 -3 -7 -33 -28 -68 -47 -35 -18 -79 -46 -97 -62 -18 -15
-55 -39 -82 -53 -27 -14 -63 -38 -80 -55 -17 -16 -50 -39 -73 -51 -23 -12 -60
-36 -82 -54 -22 -18 -67 -46 -100 -63 -33 -16 -69 -40 -80 -52 -11 -12 -40
-32 -65 -45 -25 -13 -67 -41 -93 -62 -26 -21 -70 -47 -98 -57 -28 -10 -63 -29
-79 -42 -62 -52 -105 -64 -246 -64 -147 0 -192 11 -254 60 -21 17 -54 37 -73
45 -19 8 -50 31 -68 50 -19 20 -50 45 -69 55 -19 10 -44 28 -55 40 -11 13 -56
47 -100 75 -44 29 -89 62 -99 74 -10 11 -38 32 -62 46 -24 14 -48 34 -54 45
-5 10 -34 32 -63 49 -29 17 -62 40 -73 52 -10 12 -44 38 -74 57 -30 19 -72 50
-92 68 -20 18 -55 42 -77 54 -23 11 -48 32 -57 46 -9 13 -36 36 -59 49 -23 14
-51 35 -61 46 -10 12 -39 35 -64 52 -25 17 -67 50 -94 75 -28 24 -66 52 -85
62 -20 10 -52 35 -71 55 -19 20 -53 47 -76 60 -23 14 -44 31 -47 39 -3 8 -24
27 -47 41 -22 14 -59 43 -81 65 -44 42 -113 80 -147 80 -43 0 -122 -48 -122
-75 0 -23 90 -138 132 -168 24 -18 51 -42 61 -54 10 -13 38 -35 63 -49 24 -14
51 -35 58 -46 8 -11 35 -34 60 -51 24 -18 67 -50 94 -72 100 -81 165 -131 206
-160 24 -16 62 -47 85 -67 22 -21 45 -38 50 -38 4 0 23 -16 42 -35 19 -20 58
-49 87 -66 29 -17 74 -49 99 -70 24 -22 61 -48 81 -58 21 -11 47 -33 60 -50
12 -17 41 -40 63 -51 22 -12 50 -32 61 -46 12 -13 41 -36 65 -49 23 -14 63
-43 89 -66 25 -22 70 -55 100 -74 30 -19 54 -39 54 -44 0 -5 27 -26 60 -46 33
-20 65 -45 70 -55 5 -10 45 -36 87 -58 43 -21 99 -51 126 -66 66 -39 212 -54
372 -39 108 10 119 13 183 51 37 23 87 48 112 57 25 9 63 33 85 55 22 21 57
45 79 54 21 9 54 29 73 46 18 17 60 43 91 59 31 16 72 43 90 61 18 17 52 39
75 49 23 10 62 35 86 55 25 21 66 48 93 62 26 13 62 37 80 53 18 15 56 40 85
55 29 14 67 39 85 55 18 15 52 38 75 50 23 11 54 34 70 50 15 16 51 42 78 56
28 15 64 40 80 55 17 15 50 38 75 50 25 13 64 40 87 61 22 21 63 49 90 62 26
14 57 35 68 47 11 12 46 35 77 51 32 16 73 44 92 63 19 19 50 42 69 50 19 8
52 30 73 49 22 19 62 46 90 60 27 14 69 42 93 61 48 41 72 45 100 17 30 -30
32 -141 28 -1431 -4 -1327 3 -1207 -81 -1318 -52 -69 -162 -148 -223 -163 -56
-13 -4596 -11 -4653 2 -25 5 -61 22 -80 37 -19 15 -47 35 -62 45 -14 9 -52 50
-83 91 -53 71 -56 78 -63 153 -12 118 -6 2852 6 2889 12 37 93 146 127 171 13
10 44 32 67 50 24 18 64 37 88 42 30 7 706 11 2038 11 1740 0 1997 -2 2022
-15 54 -28 44 -66 -27 -96 -25 -11 -61 -33 -80 -49 -19 -17 -64 -45 -101 -64
-37 -19 -76 -44 -87 -56 -11 -12 -42 -34 -70 -47 -27 -14 -65 -39 -84 -55 -18
-16 -62 -43 -98 -60 -35 -17 -68 -39 -74 -50 -5 -10 -37 -32 -70 -48 -33 -17
-81 -47 -107 -67 -26 -20 -65 -44 -87 -53 -22 -10 -51 -29 -64 -44 -14 -15
-52 -42 -86 -60 -33 -19 -69 -44 -80 -57 -11 -12 -48 -35 -83 -50 -57 -26
-110 -63 -178 -126 -28 -26 -32 -78 -9 -123 19 -37 47 -52 81 -44 46 12 197
93 229 123 16 16 55 41 85 56 30 15 73 42 95 60 22 18 63 44 90 58 28 13 59
35 70 47 11 12 47 36 80 52 33 17 75 44 93 59 18 16 55 40 82 54 27 14 64 38
82 54 18 15 60 42 93 59 33 16 69 40 80 52 11 12 45 35 76 51 32 15 72 42 90
58 18 17 56 42 85 55 28 14 67 38 85 54 19 16 57 41 84 55 28 13 59 35 70 47
11 12 50 37 86 56 37 18 89 51 115 73 27 22 63 51 79 65 27 22 30 30 30 80 0
47 -4 60 -28 83 l-27 28 -2238 1 c-1230 1 -2276 -2 -2323 -6z"></path>
</g>
</svg>