<svg width="75" height="81" viewBox="0 0 75 81" fill="none" xmlns="http://www.w3.org/2000/svg">
<g clip-path="url(#clip0_9_3)">
<path d="M37.92 72.12C23.56 72.12 11.88 60.4 11.88 46C11.88 31.6 23.56 19.88 37.92 19.88C52.27 19.88 63.96 31.6 63.96 46C63.96 60.44 52.26 72.12 37.92 72.12ZM37.92 21.85C24.62 21.85 13.82 32.7 13.82 46.03C13.82 59.37 24.62 70.23 37.92 70.23C51.22 70.23 62.02 59.37 62.02 46.03C62.02 32.7 51.22 21.85 37.92 21.85ZM37.92 62.8C28.72 62.8 21.22 55.27 21.22 46.03C21.22 36.8 28.72 29.27 37.92 29.27C47.12 29.27 54.62 36.8 54.62 46.03C54.62 55.27 47.12 62.79 37.92 62.79V62.8ZM37.92 31.2C29.77 31.2 23.14 37.86 23.14 46.03C23.14 54.2 29.77 60.86 37.92 60.86C46.06 60.86 52.69 54.2 52.69 46.03C52.69 37.86 46.05 31.2 37.9 31.2H37.92ZM1.26002 31.15H1.22002C0.680023 31.11 0.290023 30.65 0.290023 30.15L0.760023 16.75C0.790023 16.19 1.26002 15.78 1.76002 15.81C2.31002 15.85 2.73002 16.31 2.69002 16.85L2.22002 30.2C2.19002 30.73 1.77002 31.15 1.26002 31.15V31.15ZM4.60002 31.34C4.06002 31.34 3.64002 30.92 3.64002 30.37V16.8C3.64002 16.26 4.06002 15.84 4.60002 15.84C5.15002 15.84 5.57002 16.26 5.57002 16.81V30.38C5.57002 30.9 5.12002 31.35 4.60002 31.35V31.34ZM11.04 31.15C10.54 31.15 10.11 30.73 10.08 30.21L9.56002 16.85C9.53002 16.3 9.96002 15.88 10.49 15.85C11.03 15.82 11.45 16.25 11.49 16.79L11.99 30.16C12.03 30.7 11.61 31.12 11.06 31.16H11.03L11.04 31.15ZM7.70002 31.34C7.15002 31.34 6.73002 30.92 6.73002 30.37V16.8C6.73002 16.26 7.15002 15.84 7.69002 15.84C8.23002 15.84 8.65002 16.26 8.65002 16.81V30.38C8.65002 30.9 8.20002 31.35 7.68002 31.35L7.70002 31.34ZM6.18002 76C3.32002 76 1.00002 74.13 1.00002 71.83C1.00002 71.73 1.00002 71.71 1.35002 68.67C1.83002 64.44 2.67002 57.37 2.83002 55.2C3.15002 50.46 3.73002 40.54 3.61002 39.38C3.51002 38.51 2.68002 37.68 1.88002 37.15C0.930023 36.57 0.0300231 35.02 2.30535e-05 34C-0.0299769 33.25 0.160023 30.82 0.200023 30.57L0.260023 29.67H12.1L12.17 30.57C12.2 30.82 12.39 33.25 12.37 33.99C12.33 35.04 11.43 36.56 10.49 37.19C9.71002 37.69 8.84002 38.53 8.75002 39.39C8.62002 40.59 9.20002 50.49 9.52002 55.23C9.68002 57.36 10.48 64.4 10.97 68.6C11.32 71.64 11.32 71.77 11.32 71.87C11.35 74.17 9.04002 76 6.17002 76H6.18002ZM2.93002 71.9C2.96002 73.1 4.43002 74.1 6.18002 74.1C7.92002 74.1 9.40002 73.1 9.43002 71.9C9.40002 71.67 9.27002 70.35 9.08002 68.83C8.58002 64.6 7.76002 57.56 7.60002 55.37C7.44002 53.17 6.66002 40.83 6.82002 39.22C7.02002 37.32 8.69002 36.02 9.42002 35.54C9.92002 35.24 10.4 34.28 10.42 33.89C10.42 33.53 10.4 32.49 10.32 31.59H2.02002C1.96002 32.49 1.92002 33.53 1.92002 33.89C1.92002 34.24 2.45002 35.21 2.92002 35.53C3.64002 36.01 5.34002 37.3 5.54002 39.21C5.70002 40.81 4.89002 53.16 4.76002 55.36C4.60002 57.56 3.80002 64.66 3.28002 68.92C3.08002 70.37 2.93002 71.62 2.93002 71.89V71.9ZM70.98 76C68.76 76 66.95 74.13 66.95 71.83C66.95 71.73 67.11 69.06 67.95 53.46L68.11 50.81C68.15 50.27 68.61 49.89 69.15 49.91C69.7 49.95 70.09 50.41 70.05 50.95L69.89 53.6C69.51 60.3 68.89 71.54 68.89 71.9C68.89 73.1 69.83 74.1 70.99 74.1C72.15 74.1 73.09 73.1 73.09 71.87C73.09 71.57 72.53 61.89 72.19 55.49L71.86 49.87C71.82 49.32 72.24 48.87 72.76 48.83C73.26 48.8 73.76 49.23 73.79 49.73L74.11 55.36C74.88 69.24 75.01 71.73 75.01 71.86C75.01 74.16 73.21 75.99 70.99 75.99L70.98 76ZM70.75 51.55H70.15C68.69 51.55 67.27 50.78 66.37 49.49C65.37 48.02 65.27 46.59 65.27 44.99V29.73C65.31 29.37 65.31 29.05 65.31 28.79C65.31 22.26 67.81 14.99 71.11 14.99C72.81 14.99 73.31 17.39 73.53 18.54V18.57C73.63 18.99 73.88 20.29 73.73 47.93C73.73 48.51 73.73 48.9 73.73 48.96C73.73 49.66 73.46 50.32 73.05 50.8L72.92 50.94L72.77 51.01C72.17 51.41 71.47 51.56 70.77 51.56L70.75 51.55ZM67.21 29.85V45C67.21 46.6 67.31 47.45 67.96 48.4C68.51 49.17 69.31 49.65 70.16 49.65H70.76C71.08 49.65 71.4 49.59 71.73 49.45C71.79 49.33 71.83 49.2 71.83 49.05C71.83 48.95 71.83 48.58 71.83 47.97C71.95 23.23 71.76 19.49 71.66 19V18.97C71.36 17.57 71.16 17.13 71.02 16.94C69.72 17.24 67.29 22.46 67.29 28.79C67.26 29.09 67.26 29.42 67.23 29.84L67.21 29.85Z" fill="#333333"/>
<path d="M37.9232 72.13C23.5632 72.13 11.8832 60.41 11.8832 46.01C11.8832 31.61 23.5632 19.89 37.9232 19.89C52.2732 19.89 63.9632 31.61 63.9632 46.01C63.9632 60.45 52.2632 72.13 37.9232 72.13ZM37.9232 21.86C24.6232 21.86 13.8232 32.71 13.8232 46.04C13.8232 59.38 24.6232 70.24 37.9232 70.24C51.2232 70.24 62.0232 59.38 62.0232 46.04C62.0232 32.71 51.2232 21.86 37.9232 21.86ZM37.9232 62.81C28.7232 62.81 21.2232 55.28 21.2232 46.04C21.2232 36.81 28.7232 29.28 37.9232 29.28C47.1232 29.28 54.6232 36.81 54.6232 46.04C54.6232 55.28 47.1232 62.8 37.9232 62.8V62.81ZM37.9232 31.21C29.7732 31.21 23.1432 37.87 23.1432 46.04C23.1432 54.21 29.7732 60.87 37.9232 60.87C46.0632 60.87 52.6932 54.21 52.6932 46.04C52.6932 37.87 46.0532 31.21 37.9032 31.21H37.9232ZM1.2632 31.16H1.2232C0.683197 31.12 0.293197 30.66 0.293197 30.16L0.763197 16.76C0.793197 16.2 1.2632 15.79 1.7632 15.82C2.3132 15.86 2.7332 16.32 2.6932 16.86L2.2232 30.21C2.1932 30.74 1.7732 31.16 1.2632 31.16ZM4.6032 31.35C4.0632 31.35 3.6432 30.93 3.6432 30.38V16.81C3.6432 16.27 4.0632 15.85 4.6032 15.85C5.1532 15.85 5.5732 16.27 5.5732 16.82V30.39C5.5732 30.91 5.1232 31.36 4.6032 31.36V31.35ZM11.0432 31.16C10.5432 31.16 10.1132 30.74 10.0832 30.22L9.5632 16.86C9.5332 16.31 9.9632 15.89 10.4932 15.86C11.0332 15.83 11.4532 16.26 11.4932 16.8L11.9932 30.17C12.0332 30.71 11.6132 31.13 11.0632 31.17H11.0332L11.0432 31.16ZM7.7032 31.35C7.1532 31.35 6.7332 30.93 6.7332 30.38V16.81C6.7332 16.27 7.1532 15.85 7.6932 15.85C8.2332 15.85 8.6532 16.27 8.6532 16.82V30.39C8.6532 30.91 8.2032 31.36 7.6832 31.36L7.7032 31.35ZM6.1832 76.01C3.3232 76.01 1.0032 74.14 1.0032 71.84C1.0032 71.74 1.0032 71.72 1.3532 68.68C1.8332 64.45 2.6732 57.38 2.8332 55.21C3.1532 50.47 3.7332 40.55 3.6132 39.39C3.5132 38.52 2.6832 37.69 1.8832 37.16C0.933197 36.58 0.0331969 35.03 0.00319688 34.01C-0.0268031 33.26 0.163197 30.83 0.203197 30.58L0.263197 29.68H12.1032L12.1732 30.58C12.2032 30.83 12.3932 33.26 12.3732 34C12.3332 35.05 11.4332 36.57 10.4932 37.2C9.7132 37.7 8.8432 38.54 8.7532 39.4C8.6232 40.6 9.2032 50.5 9.5232 55.24C9.6832 57.37 10.4832 64.41 10.9732 68.61C11.3232 71.65 11.3232 71.78 11.3232 71.88C11.3532 74.18 9.0432 76.01 6.1732 76.01H6.1832ZM2.9332 71.91C2.9632 73.11 4.4332 74.11 6.1832 74.11C7.9232 74.11 9.4032 73.11 9.4332 71.91C9.4032 71.68 9.2732 70.36 9.0832 68.84C8.5832 64.61 7.7632 57.57 7.6032 55.38C7.4432 53.18 6.6632 40.84 6.8232 39.23C7.0232 37.33 8.6932 36.03 9.4232 35.55C9.9232 35.25 10.4032 34.29 10.4232 33.9C10.4232 33.54 10.4032 32.5 10.3232 31.6H2.0232C1.9632 32.5 1.9232 33.54 1.9232 33.9C1.9232 34.25 2.4532 35.22 2.9232 35.54C3.6432 36.02 5.3432 37.31 5.5432 39.22C5.7032 40.82 4.8932 53.17 4.7632 55.37C4.6032 57.57 3.8032 64.67 3.2832 68.93C3.0832 70.38 2.9332 71.63 2.9332 71.9V71.91ZM70.9832 76.01C68.7632 76.01 66.9532 74.14 66.9532 71.84C66.9532 71.74 67.1132 69.07 67.9532 53.47L68.1132 50.82C68.1532 50.28 68.6132 49.9 69.1532 49.92C69.7032 49.96 70.0932 50.42 70.0532 50.96L69.8932 53.61C69.5132 60.31 68.8932 71.55 68.8932 71.91C68.8932 73.11 69.8332 74.11 70.9932 74.11C72.1532 74.11 73.0932 73.11 73.0932 71.88C73.0932 71.58 72.5332 61.9 72.1932 55.5L71.8632 49.88C71.8232 49.33 72.2432 48.88 72.7632 48.84C73.2632 48.81 73.7632 49.24 73.7932 49.74L74.1132 55.37C74.8832 69.25 75.0132 71.74 75.0132 71.87C75.0132 74.17 73.2132 76 70.9932 76L70.9832 76.01ZM70.7532 51.56H70.1532C68.6932 51.56 67.2732 50.79 66.3732 49.5C65.3732 48.03 65.2732 46.6 65.2732 45V29.74C65.3132 29.38 65.3132 29.06 65.3132 28.8C65.3132 22.27 67.8132 15 71.1132 15C72.8132 15 73.3132 17.4 73.5332 18.55V18.58C73.6332 19 73.8832 20.3 73.7332 47.94C73.7332 48.52 73.7332 48.91 73.7332 48.97C73.7332 49.67 73.4632 50.33 73.0532 50.81L72.9232 50.95L72.7732 51.02C72.1732 51.42 71.4732 51.57 70.7732 51.57L70.7532 51.56ZM67.2132 29.86V45.01C67.2132 46.61 67.3132 47.46 67.9632 48.41C68.5132 49.18 69.3132 49.66 70.1632 49.66H70.7632C71.0832 49.66 71.4032 49.6 71.7332 49.46C71.7932 49.34 71.8332 49.21 71.8332 49.06C71.8332 48.96 71.8332 48.59 71.8332 47.98C71.9532 23.24 71.7632 19.5 71.6632 19.01V18.98C71.3632 17.58 71.1632 17.14 71.0232 16.95C69.7232 17.25 67.2932 22.47 67.2932 28.8C67.2632 29.1 67.2632 29.43 67.2332 29.85L67.2132 29.86Z" fill="#333333"/>
<g clip-path="url(#clip1_9_3)">
<path d="M37.9232 72.13C23.5632 72.13 11.8832 60.41 11.8832 46.01C11.8832 31.61 23.5632 19.89 37.9232 19.89C52.2732 19.89 63.9632 31.61 63.9632 46.01C63.9632 60.45 52.2632 72.13 37.9232 72.13ZM37.9232 21.86C24.6232 21.86 13.8232 32.71 13.8232 46.04C13.8232 59.38 24.6232 70.24 37.9232 70.24C51.2232 70.24 62.0232 59.38 62.0232 46.04C62.0232 32.71 51.2232 21.86 37.9232 21.86ZM37.9232 62.81C28.7232 62.81 21.2232 55.28 21.2232 46.04C21.2232 36.81 28.7232 29.28 37.9232 29.28C47.1232 29.28 54.6232 36.81 54.6232 46.04C54.6232 55.28 47.1232 62.8 37.9232 62.8V62.81ZM37.9232 31.21C29.7732 31.21 23.1432 37.87 23.1432 46.04C23.1432 54.21 29.7732 60.87 37.9232 60.87C46.0632 60.87 52.6932 54.21 52.6932 46.04C52.6932 37.87 46.0532 31.21 37.9032 31.21H37.9232ZM1.2632 31.16H1.2232C0.683197 31.12 0.293197 30.66 0.293197 30.16L0.763197 16.76C0.793197 16.2 1.2632 15.79 1.7632 15.82C2.3132 15.86 2.7332 16.32 2.6932 16.86L2.2232 30.21C2.1932 30.74 1.7732 31.16 1.2632 31.16ZM4.6032 31.35C4.0632 31.35 3.6432 30.93 3.6432 30.38V16.81C3.6432 16.27 4.0632 15.85 4.6032 15.85C5.1532 15.85 5.5732 16.27 5.5732 16.82V30.39C5.5732 30.91 5.1232 31.36 4.6032 31.36V31.35ZM11.0432 31.16C10.5432 31.16 10.1132 30.74 10.0832 30.22L9.5632 16.86C9.5332 16.31 9.9632 15.89 10.4932 15.86C11.0332 15.83 11.4532 16.26 11.4932 16.8L11.9932 30.17C12.0332 30.71 11.6132 31.13 11.0632 31.17H11.0332L11.0432 31.16ZM7.7032 31.35C7.1532 31.35 6.7332 30.93 6.7332 30.38V16.81C6.7332 16.27 7.1532 15.85 7.6932 15.85C8.2332 15.85 8.6532 16.27 8.6532 16.82V30.39C8.6532 30.91 8.2032 31.36 7.6832 31.36L7.7032 31.35ZM6.1832 76.01C3.3232 76.01 1.0032 74.14 1.0032 71.84C1.0032 71.74 1.0032 71.72 1.3532 68.68C1.8332 64.45 2.6732 57.38 2.8332 55.21C3.1532 50.47 3.7332 40.55 3.6132 39.39C3.5132 38.52 2.6832 37.69 1.8832 37.16C0.933197 36.58 0.0331969 35.03 0.00319688 34.01C-0.0268031 33.26 0.163197 30.83 0.203197 30.58L0.263197 29.68H12.1032L12.1732 30.58C12.2032 30.83 12.3932 33.26 12.3732 34C12.3332 35.05 11.4332 36.57 10.4932 37.2C9.7132 37.7 8.8432 38.54 8.7532 39.4C8.6232 40.6 9.2032 50.5 9.5232 55.24C9.6832 57.37 10.4832 64.41 10.9732 68.61C11.3232 71.65 11.3232 71.78 11.3232 71.88C11.3532 74.18 9.0432 76.01 6.1732 76.01H6.1832ZM2.9332 71.91C2.9632 73.11 4.4332 74.11 6.1832 74.11C7.9232 74.11 9.4032 73.11 9.4332 71.91C9.4032 71.68 9.2732 70.36 9.0832 68.84C8.5832 64.61 7.7632 57.57 7.6032 55.38C7.4432 53.18 6.6632 40.84 6.8232 39.23C7.0232 37.33 8.6932 36.03 9.4232 35.55C9.9232 35.25 10.4032 34.29 10.4232 33.9C10.4232 33.54 10.4032 32.5 10.3232 31.6H2.0232C1.9632 32.5 1.9232 33.54 1.9232 33.9C1.9232 34.25 2.4532 35.22 2.9232 35.54C3.6432 36.02 5.3432 37.31 5.5432 39.22C5.7032 40.82 4.8932 53.17 4.7632 55.37C4.6032 57.57 3.8032 64.67 3.2832 68.93C3.0832 70.38 2.9332 71.63 2.9332 71.9V71.91ZM70.9832 76.01C68.7632 76.01 66.9532 74.14 66.9532 71.84C66.9532 71.74 67.1132 69.07 67.9532 53.47L68.1132 50.82C68.1532 50.28 68.6132 49.9 69.1532 49.92C69.7032 49.96 70.0932 50.42 70.0532 50.96L69.8932 53.61C69.5132 60.31 68.8932 71.55 68.8932 71.91C68.8932 73.11 69.8332 74.11 70.9932 74.11C72.1532 74.11 73.0932 73.11 73.0932 71.88C73.0932 71.58 72.5332 61.9 72.1932 55.5L71.8632 49.88C71.8232 49.33 72.2432 48.88 72.7632 48.84C73.2632 48.81 73.7632 49.24 73.7932 49.74L74.1132 55.37C74.8832 69.25 75.0132 71.74 75.0132 71.87C75.0132 74.17 73.2132 76 70.9932 76L70.9832 76.01ZM70.7532 51.56H70.1532C68.6932 51.56 67.2732 50.79 66.3732 49.5C65.3732 48.03 65.2732 46.6 65.2732 45V29.74C65.3132 29.38 65.3132 29.06 65.3132 28.8C65.3132 22.27 67.8132 15 71.1132 15C72.8132 15 73.3132 17.4 73.5332 18.55V18.58C73.6332 19 73.8832 20.3 73.7332 47.94C73.7332 48.52 73.7332 48.91 73.7332 48.97C73.7332 49.67 73.4632 50.33 73.0532 50.81L72.9232 50.95L72.7732 51.02C72.1732 51.42 71.4732 51.57 70.7732 51.57L70.7532 51.56ZM67.2132 29.86V45.01C67.2132 46.61 67.3132 47.46 67.9632 48.41C68.5132 49.18 69.3132 49.66 70.1632 49.66H70.7632C71.0832 49.66 71.4032 49.6 71.7332 49.46C71.7932 49.34 71.8332 49.21 71.8332 49.06C71.8332 48.96 71.8332 48.59 71.8332 47.98C71.9532 23.24 71.7632 19.5 71.6632 19.01V18.98C71.3632 17.58 71.1632 17.14 71.0232 16.95C69.7232 17.25 67.2932 22.47 67.2932 28.8C67.2632 29.1 67.2632 29.43 67.2332 29.85L67.2132 29.86Z" fill="#666204"/>
</g>
<g clip-path="url(#clip2_9_3)">
<path d="M37.9232 72.13C23.5632 72.13 11.8832 60.41 11.8832 46.01C11.8832 31.61 23.5632 19.89 37.9232 19.89C52.2732 19.89 63.9632 31.61 63.9632 46.01C63.9632 60.45 52.2632 72.13 37.9232 72.13ZM37.9232 21.86C24.6232 21.86 13.8232 32.71 13.8232 46.04C13.8232 59.38 24.6232 70.24 37.9232 70.24C51.2232 70.24 62.0232 59.38 62.0232 46.04C62.0232 32.71 51.2232 21.86 37.9232 21.86ZM37.9232 62.81C28.7232 62.81 21.2232 55.28 21.2232 46.04C21.2232 36.81 28.7232 29.28 37.9232 29.28C47.1232 29.28 54.6232 36.81 54.6232 46.04C54.6232 55.28 47.1232 62.8 37.9232 62.8V62.81ZM37.9232 31.21C29.7732 31.21 23.1432 37.87 23.1432 46.04C23.1432 54.21 29.7732 60.87 37.9232 60.87C46.0632 60.87 52.6932 54.21 52.6932 46.04C52.6932 37.87 46.0532 31.21 37.9032 31.21H37.9232ZM1.2632 31.16H1.2232C0.683197 31.12 0.293197 30.66 0.293197 30.16L0.763197 16.76C0.793197 16.2 1.2632 15.79 1.7632 15.82C2.3132 15.86 2.7332 16.32 2.6932 16.86L2.2232 30.21C2.1932 30.74 1.7732 31.16 1.2632 31.16ZM4.6032 31.35C4.0632 31.35 3.6432 30.93 3.6432 30.38V16.81C3.6432 16.27 4.0632 15.85 4.6032 15.85C5.1532 15.85 5.5732 16.27 5.5732 16.82V30.39C5.5732 30.91 5.1232 31.36 4.6032 31.36V31.35ZM11.0432 31.16C10.5432 31.16 10.1132 30.74 10.0832 30.22L9.5632 16.86C9.5332 16.31 9.9632 15.89 10.4932 15.86C11.0332 15.83 11.4532 16.26 11.4932 16.8L11.9932 30.17C12.0332 30.71 11.6132 31.13 11.0632 31.17H11.0332L11.0432 31.16ZM7.7032 31.35C7.1532 31.35 6.7332 30.93 6.7332 30.38V16.81C6.7332 16.27 7.1532 15.85 7.6932 15.85C8.2332 15.85 8.6532 16.27 8.6532 16.82V30.39C8.6532 30.91 8.2032 31.36 7.6832 31.36L7.7032 31.35ZM6.1832 76.01C3.3232 76.01 1.0032 74.14 1.0032 71.84C1.0032 71.74 1.0032 71.72 1.3532 68.68C1.8332 64.45 2.6732 57.38 2.8332 55.21C3.1532 50.47 3.7332 40.55 3.6132 39.39C3.5132 38.52 2.6832 37.69 1.8832 37.16C0.933197 36.58 0.0331969 35.03 0.00319688 34.01C-0.0268031 33.26 0.163197 30.83 0.203197 30.58L0.263197 29.68H12.1032L12.1732 30.58C12.2032 30.83 12.3932 33.26 12.3732 34C12.3332 35.05 11.4332 36.57 10.4932 37.2C9.7132 37.7 8.8432 38.54 8.7532 39.4C8.6232 40.6 9.2032 50.5 9.5232 55.24C9.6832 57.37 10.4832 64.41 10.9732 68.61C11.3232 71.65 11.3232 71.78 11.3232 71.88C11.3532 74.18 9.0432 76.01 6.1732 76.01H6.1832ZM2.9332 71.91C2.9632 73.11 4.4332 74.11 6.1832 74.11C7.9232 74.11 9.4032 73.11 9.4332 71.91C9.4032 71.68 9.2732 70.36 9.0832 68.84C8.5832 64.61 7.7632 57.57 7.6032 55.38C7.4432 53.18 6.6632 40.84 6.8232 39.23C7.0232 37.33 8.6932 36.03 9.4232 35.55C9.9232 35.25 10.4032 34.29 10.4232 33.9C10.4232 33.54 10.4032 32.5 10.3232 31.6H2.0232C1.9632 32.5 1.9232 33.54 1.9232 33.9C1.9232 34.25 2.4532 35.22 2.9232 35.54C3.6432 36.02 5.3432 37.31 5.5432 39.22C5.7032 40.82 4.8932 53.17 4.7632 55.37C4.6032 57.57 3.8032 64.67 3.2832 68.93C3.0832 70.38 2.9332 71.63 2.9332 71.9V71.91ZM70.9832 76.01C68.7632 76.01 66.9532 74.14 66.9532 71.84C66.9532 71.74 67.1132 69.07 67.9532 53.47L68.1132 50.82C68.1532 50.28 68.6132 49.9 69.1532 49.92C69.7032 49.96 70.0932 50.42 70.0532 50.96L69.8932 53.61C69.5132 60.31 68.8932 71.55 68.8932 71.91C68.8932 73.11 69.8332 74.11 70.9932 74.11C72.1532 74.11 73.0932 73.11 73.0932 71.88C73.0932 71.58 72.5332 61.9 72.1932 55.5L71.8632 49.88C71.8232 49.33 72.2432 48.88 72.7632 48.84C73.2632 48.81 73.7632 49.24 73.7932 49.74L74.1132 55.37C74.8832 69.25 75.0132 71.74 75.0132 71.87C75.0132 74.17 73.2132 76 70.9932 76L70.9832 76.01ZM70.7532 51.56H70.1532C68.6932 51.56 67.2732 50.79 66.3732 49.5C65.3732 48.03 65.2732 46.6 65.2732 45V29.74C65.3132 29.38 65.3132 29.06 65.3132 28.8C65.3132 22.27 67.8132 15 71.1132 15C72.8132 15 73.3132 17.4 73.5332 18.55V18.58C73.6332 19 73.8832 20.3 73.7332 47.94C73.7332 48.52 73.7332 48.91 73.7332 48.97C73.7332 49.67 73.4632 50.33 73.0532 50.81L72.9232 50.95L72.7732 51.02C72.1732 51.42 71.4732 51.57 70.7732 51.57L70.7532 51.56ZM67.2132 29.86V45.01C67.2132 46.61 67.3132 47.46 67.9632 48.41C68.5132 49.18 69.3132 49.66 70.1632 49.66H70.7632C71.0832 49.66 71.4032 49.6 71.7332 49.46C71.7932 49.34 71.8332 49.21 71.8332 49.06C71.8332 48.96 71.8332 48.59 71.8332 47.98C71.9532 23.24 71.7632 19.5 71.6632 19.01V18.98C71.3632 17.58 71.1632 17.14 71.0232 16.95C69.7232 17.25 67.2932 22.47 67.2932 28.8C67.2632 29.1 67.2632 29.43 67.2332 29.85L67.2132 29.86Z" fill="#185D62"/>
</g>
<g clip-path="url(#clip3_9_3)">
<path d="M37.9232 72.13C23.5632 72.13 11.8832 60.41 11.8832 46.01C11.8832 31.61 23.5632 19.89 37.9232 19.89C52.2732 19.89 63.9632 31.61 63.9632 46.01C63.9632 60.45 52.2632 72.13 37.9232 72.13ZM37.9232 21.86C24.6232 21.86 13.8232 32.71 13.8232 46.04C13.8232 59.38 24.6232 70.24 37.9232 70.24C51.2232 70.24 62.0232 59.38 62.0232 46.04C62.0232 32.71 51.2232 21.86 37.9232 21.86ZM37.9232 62.81C28.7232 62.81 21.2232 55.28 21.2232 46.04C21.2232 36.81 28.7232 29.28 37.9232 29.28C47.1232 29.28 54.6232 36.81 54.6232 46.04C54.6232 55.28 47.1232 62.8 37.9232 62.8V62.81ZM37.9232 31.21C29.7732 31.21 23.1432 37.87 23.1432 46.04C23.1432 54.21 29.7732 60.87 37.9232 60.87C46.0632 60.87 52.6932 54.21 52.6932 46.04C52.6932 37.87 46.0532 31.21 37.9032 31.21H37.9232ZM1.2632 31.16H1.2232C0.683197 31.12 0.293197 30.66 0.293197 30.16L0.763197 16.76C0.793197 16.2 1.2632 15.79 1.7632 15.82C2.3132 15.86 2.7332 16.32 2.6932 16.86L2.2232 30.21C2.1932 30.74 1.7732 31.16 1.2632 31.16ZM4.6032 31.35C4.0632 31.35 3.6432 30.93 3.6432 30.38V16.81C3.6432 16.27 4.0632 15.85 4.6032 15.85C5.1532 15.85 5.5732 16.27 5.5732 16.82V30.39C5.5732 30.91 5.1232 31.36 4.6032 31.36V31.35ZM11.0432 31.16C10.5432 31.16 10.1132 30.74 10.0832 30.22L9.5632 16.86C9.5332 16.31 9.9632 15.89 10.4932 15.86C11.0332 15.83 11.4532 16.26 11.4932 16.8L11.9932 30.17C12.0332 30.71 11.6132 31.13 11.0632 31.17H11.0332L11.0432 31.16ZM7.7032 31.35C7.1532 31.35 6.7332 30.93 6.7332 30.38V16.81C6.7332 16.27 7.1532 15.85 7.6932 15.85C8.2332 15.85 8.6532 16.27 8.6532 16.82V30.39C8.6532 30.91 8.2032 31.36 7.6832 31.36L7.7032 31.35ZM6.1832 76.01C3.3232 76.01 1.0032 74.14 1.0032 71.84C1.0032 71.74 1.0032 71.72 1.3532 68.68C1.8332 64.45 2.6732 57.38 2.8332 55.21C3.1532 50.47 3.7332 40.55 3.6132 39.39C3.5132 38.52 2.6832 37.69 1.8832 37.16C0.933197 36.58 0.0331969 35.03 0.00319688 34.01C-0.0268031 33.26 0.163197 30.83 0.203197 30.58L0.263197 29.68H12.1032L12.1732 30.58C12.2032 30.83 12.3932 33.26 12.3732 34C12.3332 35.05 11.4332 36.57 10.4932 37.2C9.7132 37.7 8.8432 38.54 8.7532 39.4C8.6232 40.6 9.2032 50.5 9.5232 55.24C9.6832 57.37 10.4832 64.41 10.9732 68.61C11.3232 71.65 11.3232 71.78 11.3232 71.88C11.3532 74.18 9.0432 76.01 6.1732 76.01H6.1832ZM2.9332 71.91C2.9632 73.11 4.4332 74.11 6.1832 74.11C7.9232 74.11 9.4032 73.11 9.4332 71.91C9.4032 71.68 9.2732 70.36 9.0832 68.84C8.5832 64.61 7.7632 57.57 7.6032 55.38C7.4432 53.18 6.6632 40.84 6.8232 39.23C7.0232 37.33 8.6932 36.03 9.4232 35.55C9.9232 35.25 10.4032 34.29 10.4232 33.9C10.4232 33.54 10.4032 32.5 10.3232 31.6H2.0232C1.9632 32.5 1.9232 33.54 1.9232 33.9C1.9232 34.25 2.4532 35.22 2.9232 35.54C3.6432 36.02 5.3432 37.31 5.5432 39.22C5.7032 40.82 4.8932 53.17 4.7632 55.37C4.6032 57.57 3.8032 64.67 3.2832 68.93C3.0832 70.38 2.9332 71.63 2.9332 71.9V71.91ZM70.9832 76.01C68.7632 76.01 66.9532 74.14 66.9532 71.84C66.9532 71.74 67.1132 69.07 67.9532 53.47L68.1132 50.82C68.1532 50.28 68.6132 49.9 69.1532 49.92C69.7032 49.96 70.0932 50.42 70.0532 50.96L69.8932 53.61C69.5132 60.31 68.8932 71.55 68.8932 71.91C68.8932 73.11 69.8332 74.11 70.9932 74.11C72.1532 74.11 73.0932 73.11 73.0932 71.88C73.0932 71.58 72.5332 61.9 72.1932 55.5L71.8632 49.88C71.8232 49.33 72.2432 48.88 72.7632 48.84C73.2632 48.81 73.7632 49.24 73.7932 49.74L74.1132 55.37C74.8832 69.25 75.0132 71.74 75.0132 71.87C75.0132 74.17 73.2132 76 70.9932 76L70.9832 76.01ZM70.7532 51.56H70.1532C68.6932 51.56 67.2732 50.79 66.3732 49.5C65.3732 48.03 65.2732 46.6 65.2732 45V29.74C65.3132 29.38 65.3132 29.06 65.3132 28.8C65.3132 22.27 67.8132 15 71.1132 15C72.8132 15 73.3132 17.4 73.5332 18.55V18.58C73.6332 19 73.8832 20.3 73.7332 47.94C73.7332 48.52 73.7332 48.91 73.7332 48.97C73.7332 49.67 73.4632 50.33 73.0532 50.81L72.9232 50.95L72.7732 51.02C72.1732 51.42 71.4732 51.57 70.7732 51.57L70.7532 51.56ZM67.2132 29.86V45.01C67.2132 46.61 67.3132 47.46 67.9632 48.41C68.5132 49.18 69.3132 49.66 70.1632 49.66H70.7632C71.0832 49.66 71.4032 49.6 71.7332 49.46C71.7932 49.34 71.8332 49.21 71.8332 49.06C71.8332 48.96 71.8332 48.59 71.8332 47.98C71.9532 23.24 71.7632 19.5 71.6632 19.01V18.98C71.3632 17.58 71.1632 17.14 71.0232 16.95C69.7232 17.25 67.2932 22.47 67.2932 28.8C67.2632 29.1 67.2632 29.43 67.2332 29.85L67.2132 29.86Z" fill="#185D62"/>
</g>
<g clip-path="url(#clip4_9_3)">
<path d="M37.9232 72.13C23.5632 72.13 11.8832 60.41 11.8832 46.01C11.8832 31.61 23.5632 19.89 37.9232 19.89C52.2732 19.89 63.9632 31.61 63.9632 46.01C63.9632 60.45 52.2632 72.13 37.9232 72.13ZM37.9232 21.86C24.6232 21.86 13.8232 32.71 13.8232 46.04C13.8232 59.38 24.6232 70.24 37.9232 70.24C51.2232 70.24 62.0232 59.38 62.0232 46.04C62.0232 32.71 51.2232 21.86 37.9232 21.86ZM37.9232 62.81C28.7232 62.81 21.2232 55.28 21.2232 46.04C21.2232 36.81 28.7232 29.28 37.9232 29.28C47.1232 29.28 54.6232 36.81 54.6232 46.04C54.6232 55.28 47.1232 62.8 37.9232 62.8V62.81ZM37.9232 31.21C29.7732 31.21 23.1432 37.87 23.1432 46.04C23.1432 54.21 29.7732 60.87 37.9232 60.87C46.0632 60.87 52.6932 54.21 52.6932 46.04C52.6932 37.87 46.0532 31.21 37.9032 31.21H37.9232ZM1.2632 31.16H1.2232C0.683197 31.12 0.293197 30.66 0.293197 30.16L0.763197 16.76C0.793197 16.2 1.2632 15.79 1.7632 15.82C2.3132 15.86 2.7332 16.32 2.6932 16.86L2.2232 30.21C2.1932 30.74 1.7732 31.16 1.2632 31.16ZM4.6032 31.35C4.0632 31.35 3.6432 30.93 3.6432 30.38V16.81C3.6432 16.27 4.0632 15.85 4.6032 15.85C5.1532 15.85 5.5732 16.27 5.5732 16.82V30.39C5.5732 30.91 5.1232 31.36 4.6032 31.36V31.35ZM11.0432 31.16C10.5432 31.16 10.1132 30.74 10.0832 30.22L9.5632 16.86C9.5332 16.31 9.9632 15.89 10.4932 15.86C11.0332 15.83 11.4532 16.26 11.4932 16.8L11.9932 30.17C12.0332 30.71 11.6132 31.13 11.0632 31.17H11.0332L11.0432 31.16ZM7.7032 31.35C7.1532 31.35 6.7332 30.93 6.7332 30.38V16.81C6.7332 16.27 7.1532 15.85 7.6932 15.85C8.2332 15.85 8.6532 16.27 8.6532 16.82V30.39C8.6532 30.91 8.2032 31.36 7.6832 31.36L7.7032 31.35ZM6.1832 76.01C3.3232 76.01 1.0032 74.14 1.0032 71.84C1.0032 71.74 1.0032 71.72 1.3532 68.68C1.8332 64.45 2.6732 57.38 2.8332 55.21C3.1532 50.47 3.7332 40.55 3.6132 39.39C3.5132 38.52 2.6832 37.69 1.8832 37.16C0.933197 36.58 0.0331969 35.03 0.00319688 34.01C-0.0268031 33.26 0.163197 30.83 0.203197 30.58L0.263197 29.68H12.1032L12.1732 30.58C12.2032 30.83 12.3932 33.26 12.3732 34C12.3332 35.05 11.4332 36.57 10.4932 37.2C9.7132 37.7 8.8432 38.54 8.7532 39.4C8.6232 40.6 9.2032 50.5 9.5232 55.24C9.6832 57.37 10.4832 64.41 10.9732 68.61C11.3232 71.65 11.3232 71.78 11.3232 71.88C11.3532 74.18 9.0432 76.01 6.1732 76.01H6.1832ZM2.9332 71.91C2.9632 73.11 4.4332 74.11 6.1832 74.11C7.9232 74.11 9.4032 73.11 9.4332 71.91C9.4032 71.68 9.2732 70.36 9.0832 68.84C8.5832 64.61 7.7632 57.57 7.6032 55.38C7.4432 53.18 6.6632 40.84 6.8232 39.23C7.0232 37.33 8.6932 36.03 9.4232 35.55C9.9232 35.25 10.4032 34.29 10.4232 33.9C10.4232 33.54 10.4032 32.5 10.3232 31.6H2.0232C1.9632 32.5 1.9232 33.54 1.9232 33.9C1.9232 34.25 2.4532 35.22 2.9232 35.54C3.6432 36.02 5.3432 37.31 5.5432 39.22C5.7032 40.82 4.8932 53.17 4.7632 55.37C4.6032 57.57 3.8032 64.67 3.2832 68.93C3.0832 70.38 2.9332 71.63 2.9332 71.9V71.91ZM70.9832 76.01C68.7632 76.01 66.9532 74.14 66.9532 71.84C66.9532 71.74 67.1132 69.07 67.9532 53.47L68.1132 50.82C68.1532 50.28 68.6132 49.9 69.1532 49.92C69.7032 49.96 70.0932 50.42 70.0532 50.96L69.8932 53.61C69.5132 60.31 68.8932 71.55 68.8932 71.91C68.8932 73.11 69.8332 74.11 70.9932 74.11C72.1532 74.11 73.0932 73.11 73.0932 71.88C73.0932 71.58 72.5332 61.9 72.1932 55.5L71.8632 49.88C71.8232 49.33 72.2432 48.88 72.7632 48.84C73.2632 48.81 73.7632 49.24 73.7932 49.74L74.1132 55.37C74.8832 69.25 75.0132 71.74 75.0132 71.87C75.0132 74.17 73.2132 76 70.9932 76L70.9832 76.01ZM70.7532 51.56H70.1532C68.6932 51.56 67.2732 50.79 66.3732 49.5C65.3732 48.03 65.2732 46.6 65.2732 45V29.74C65.3132 29.38 65.3132 29.06 65.3132 28.8C65.3132 22.27 67.8132 15 71.1132 15C72.8132 15 73.3132 17.4 73.5332 18.55V18.58C73.6332 19 73.8832 20.3 73.7332 47.94C73.7332 48.52 73.7332 48.91 73.7332 48.97C73.7332 49.67 73.4632 50.33 73.0532 50.81L72.9232 50.95L72.7732 51.02C72.1732 51.42 71.4732 51.57 70.7732 51.57L70.7532 51.56ZM67.2132 29.86V45.01C67.2132 46.61 67.3132 47.46 67.9632 48.41C68.5132 49.18 69.3132 49.66 70.1632 49.66H70.7632C71.0832 49.66 71.4032 49.6 71.7332 49.46C71.7932 49.34 71.8332 49.21 71.8332 49.06C71.8332 48.96 71.8332 48.59 71.8332 47.98C71.9532 23.24 71.7632 19.5 71.6632 19.01V18.98C71.3632 17.58 71.1632 17.14 71.0232 16.95C69.7232 17.25 67.2932 22.47 67.2932 28.8C67.2632 29.1 67.2632 29.43 67.2332 29.85L67.2132 29.86Z" fill="#185D62"/>
</g>
<g clip-path="url(#clip5_9_3)">
<path d="M37.9232 72.13C23.5632 72.13 11.8832 60.41 11.8832 46.01C11.8832 31.61 23.5632 19.89 37.9232 19.89C52.2732 19.89 63.9632 31.61 63.9632 46.01C63.9632 60.45 52.2632 72.13 37.9232 72.13ZM37.9232 21.86C24.6232 21.86 13.8232 32.71 13.8232 46.04C13.8232 59.38 24.6232 70.24 37.9232 70.24C51.2232 70.24 62.0232 59.38 62.0232 46.04C62.0232 32.71 51.2232 21.86 37.9232 21.86ZM37.9232 62.81C28.7232 62.81 21.2232 55.28 21.2232 46.04C21.2232 36.81 28.7232 29.28 37.9232 29.28C47.1232 29.28 54.6232 36.81 54.6232 46.04C54.6232 55.28 47.1232 62.8 37.9232 62.8V62.81ZM37.9232 31.21C29.7732 31.21 23.1432 37.87 23.1432 46.04C23.1432 54.21 29.7732 60.87 37.9232 60.87C46.0632 60.87 52.6932 54.21 52.6932 46.04C52.6932 37.87 46.0532 31.21 37.9032 31.21H37.9232ZM1.2632 31.16H1.2232C0.683197 31.12 0.293197 30.66 0.293197 30.16L0.763197 16.76C0.793197 16.2 1.2632 15.79 1.7632 15.82C2.3132 15.86 2.7332 16.32 2.6932 16.86L2.2232 30.21C2.1932 30.74 1.7732 31.16 1.2632 31.16ZM4.6032 31.35C4.0632 31.35 3.6432 30.93 3.6432 30.38V16.81C3.6432 16.27 4.0632 15.85 4.6032 15.85C5.1532 15.85 5.5732 16.27 5.5732 16.82V30.39C5.5732 30.91 5.1232 31.36 4.6032 31.36V31.35ZM11.0432 31.16C10.5432 31.16 10.1132 30.74 10.0832 30.22L9.5632 16.86C9.5332 16.31 9.9632 15.89 10.4932 15.86C11.0332 15.83 11.4532 16.26 11.4932 16.8L11.9932 30.17C12.0332 30.71 11.6132 31.13 11.0632 31.17H11.0332L11.0432 31.16ZM7.7032 31.35C7.1532 31.35 6.7332 30.93 6.7332 30.38V16.81C6.7332 16.27 7.1532 15.85 7.6932 15.85C8.2332 15.85 8.6532 16.27 8.6532 16.82V30.39C8.6532 30.91 8.2032 31.36 7.6832 31.36L7.7032 31.35ZM6.1832 76.01C3.3232 76.01 1.0032 74.14 1.0032 71.84C1.0032 71.74 1.0032 71.72 1.3532 68.68C1.8332 64.45 2.6732 57.38 2.8332 55.21C3.1532 50.47 3.7332 40.55 3.6132 39.39C3.5132 38.52 2.6832 37.69 1.8832 37.16C0.933197 36.58 0.0331969 35.03 0.00319688 34.01C-0.0268031 33.26 0.163197 30.83 0.203197 30.58L0.263197 29.68H12.1032L12.1732 30.58C12.2032 30.83 12.3932 33.26 12.3732 34C12.3332 35.05 11.4332 36.57 10.4932 37.2C9.7132 37.7 8.8432 38.54 8.7532 39.4C8.6232 40.6 9.2032 50.5 9.5232 55.24C9.6832 57.37 10.4832 64.41 10.9732 68.61C11.3232 71.65 11.3232 71.78 11.3232 71.88C11.3532 74.18 9.0432 76.01 6.1732 76.01H6.1832ZM2.9332 71.91C2.9632 73.11 4.4332 74.11 6.1832 74.11C7.9232 74.11 9.4032 73.11 9.4332 71.91C9.4032 71.68 9.2732 70.36 9.0832 68.84C8.5832 64.61 7.7632 57.57 7.6032 55.38C7.4432 53.18 6.6632 40.84 6.8232 39.23C7.0232 37.33 8.6932 36.03 9.4232 35.55C9.9232 35.25 10.4032 34.29 10.4232 33.9C10.4232 33.54 10.4032 32.5 10.3232 31.6H2.0232C1.9632 32.5 1.9232 33.54 1.9232 33.9C1.9232 34.25 2.4532 35.22 2.9232 35.54C3.6432 36.02 5.3432 37.31 5.5432 39.22C5.7032 40.82 4.8932 53.17 4.7632 55.37C4.6032 57.57 3.8032 64.67 3.2832 68.93C3.0832 70.38 2.9332 71.63 2.9332 71.9V71.91ZM70.9832 76.01C68.7632 76.01 66.9532 74.14 66.9532 71.84C66.9532 71.74 67.1132 69.07 67.9532 53.47L68.1132 50.82C68.1532 50.28 68.6132 49.9 69.1532 49.92C69.7032 49.96 70.0932 50.42 70.0532 50.96L69.8932 53.61C69.5132 60.31 68.8932 71.55 68.8932 71.91C68.8932 73.11 69.8332 74.11 70.9932 74.11C72.1532 74.11 73.0932 73.11 73.0932 71.88C73.0932 71.58 72.5332 61.9 72.1932 55.5L71.8632 49.88C71.8232 49.33 72.2432 48.88 72.7632 48.84C73.2632 48.81 73.7632 49.24 73.7932 49.74L74.1132 55.37C74.8832 69.25 75.0132 71.74 75.0132 71.87C75.0132 74.17 73.2132 76 70.9932 76L70.9832 76.01ZM70.7532 51.56H70.1532C68.6932 51.56 67.2732 50.79 66.3732 49.5C65.3732 48.03 65.2732 46.6 65.2732 45V29.74C65.3132 29.38 65.3132 29.06 65.3132 28.8C65.3132 22.27 67.8132 15 71.1132 15C72.8132 15 73.3132 17.4 73.5332 18.55V18.58C73.6332 19 73.8832 20.3 73.7332 47.94C73.7332 48.52 73.7332 48.91 73.7332 48.97C73.7332 49.67 73.4632 50.33 73.0532 50.81L72.9232 50.95L72.7732 51.02C72.1732 51.42 71.4732 51.57 70.7732 51.57L70.7532 51.56ZM67.2132 29.86V45.01C67.2132 46.61 67.3132 47.46 67.9632 48.41C68.5132 49.18 69.3132 49.66 70.1632 49.66H70.7632C71.0832 49.66 71.4032 49.6 71.7332 49.46C71.7932 49.34 71.8332 49.21 71.8332 49.06C71.8332 48.96 71.8332 48.59 71.8332 47.98C71.9532 23.24 71.7632 19.5 71.6632 19.01V18.98C71.3632 17.58 71.1632 17.14 71.0232 16.95C69.7232 17.25 67.2932 22.47 67.2932 28.8C67.2632 29.1 67.2632 29.43 67.2332 29.85L67.2132 29.86Z" fill="#095871"/>
</g>
</g>
<defs>
<clipPath id="clip0_9_3">
<rect width="75" height="81" fill="white"/>
</clipPath>
<clipPath id="clip1_9_3">
<rect width="54" height="54" fill="white" transform="translate(11 19)"/>
</clipPath>
<clipPath id="clip2_9_3">
<rect width="12" height="24" fill="white" transform="translate(0 52)"/>
</clipPath>
<clipPath id="clip3_9_3">
<rect width="11" height="15" fill="white" transform="translate(0 37)"/>
</clipPath>
<clipPath id="clip4_9_3">
<rect width="13" height="22" fill="white" transform="translate(0 15)"/>
</clipPath>
<clipPath id="clip5_9_3">
<rect width="12" height="61" fill="white" transform="translate(65 15)"/>
</clipPath>
</defs>
</svg>
