 <svg version="1.0" xmlns="http://www.w3.org/2000/svg" width="700.000000pt" height="749.000000pt" viewBox="0 0 700.000000 749.000000" preserveAspectRatio="xMidYMid meet">
<metadata>
Created by potrace 1.12, written by Peter Selinger 2001-2015
</metadata>
<g transform="translate(0.000000,749.000000) scale(0.100000,-0.100000)" fill="#000000" stroke="none">
<path d="M3515 6703 c-145 -11 -374 -46 -475 -72 -133 -35 -256 -76 -285 -95
-11 -7 -33 -16 -49 -20 -17 -4 -41 -15 -55 -25 -14 -10 -37 -22 -51 -26 -14
-4 -32 -13 -40 -20 -8 -6 -49 -31 -90 -54 -41 -23 -93 -56 -115 -72 -22 -16
-51 -37 -65 -46 -46 -32 -205 -170 -261 -229 -49 -52 -72 -78 -154 -175 -22
-26 -33 -42 -86 -120 -86 -129 -176 -294 -199 -364 -7 -22 -16 -45 -21 -50
-14 -19 -76 -219 -103 -335 -58 -254 -61 -685 -5 -915 31 -128 89 -314 111
-355 10 -19 18 -40 18 -47 0 -14 108 -227 137 -269 11 -16 33 -49 49 -74 73
-114 160 -216 296 -352 82 -82 153 -148 158 -148 6 0 18 -8 28 -17 10 -10 35
-30 57 -45 22 -15 58 -40 80 -56 58 -41 209 -124 290 -159 147 -65 193 -83
205 -83 6 0 44 -11 83 -24 40 -13 131 -36 202 -52 127 -28 137 -29 410 -29
251 1 289 3 365 22 47 11 105 24 130 28 25 4 68 16 95 26 28 10 68 22 90 28
83 20 333 136 435 201 25 16 58 37 74 46 37 21 142 101 221 168 96 83 202 192
298 311 40 50 163 236 188 287 70 136 99 197 99 207 0 7 9 29 19 49 26 50 58
148 81 252 10 47 23 97 29 112 29 76 42 507 21 703 -14 136 -102 468 -137 520
-7 11 -13 26 -13 34 0 12 -27 69 -99 209 -17 35 -78 130 -148 232 -39 56 -166
201 -239 272 -306 297 -695 503 -1094 578 -132 26 -404 50 -485 43z m246 -284
c208 -16 503 -97 652 -180 70 -38 136 -74 158 -86 15 -7 32 -20 39 -28 7 -8
17 -15 22 -15 5 0 46 -28 91 -62 316 -245 525 -535 657 -913 22 -63 25 -73 62
-225 21 -88 23 -115 23 -380 l-1 -285 -31 -125 c-44 -174 -79 -271 -153 -422
-45 -92 -138 -242 -166 -269 l-26 -24 -29 35 c-16 19 -37 49 -46 65 -26 49
-147 188 -215 247 -214 187 -480 310 -823 380 -143 30 -161 31 -395 31 -194 0
-261 -3 -320 -17 -41 -9 -109 -23 -150 -31 -79 -14 -218 -56 -260 -79 -14 -7
-43 -19 -65 -26 -48 -15 -220 -105 -257 -134 -15 -12 -43 -32 -63 -46 -21 -14
-45 -32 -54 -40 -89 -78 -113 -102 -161 -156 -70 -79 -84 -96 -126 -166 -20
-32 -42 -58 -49 -58 -49 0 -242 354 -303 555 -72 241 -77 274 -77 570 0 249 2
278 24 370 26 109 88 314 101 330 4 6 13 28 20 50 7 22 21 51 30 65 10 14 21
35 25 48 4 13 16 38 27 55 49 80 150 232 156 237 4 3 20 22 36 43 59 80 261
272 346 330 146 99 172 115 300 178 108 53 203 90 300 115 30 8 78 21 105 29
28 8 93 19 145 25 192 21 282 23 451 9z"></path>
<path d="M3490 6001 c-98 -12 -226 -67 -314 -136 -219 -169 -331 -445 -306
-755 15 -184 92 -357 220 -494 115 -123 234 -186 397 -210 92 -13 113 -13 200
1 100 15 186 49 270 105 87 59 199 188 245 283 8 17 19 39 25 50 7 11 24 61
39 110 26 82 28 104 29 245 0 142 -2 162 -28 240 -55 171 -110 263 -217 371
-86 84 -167 131 -310 178 -38 12 -188 20 -250 12z"></path>
<path d="M1126 2728 c-20 -28 -21 -186 -5 -473 11 -203 7 -235 -29 -235 -9 -1
-35 -8 -57 -16 -54 -21 -200 -60 -314 -84 -51 -11 -120 -27 -151 -35 -32 -8
-76 -15 -97 -15 -22 0 -48 -6 -58 -14 -16 -12 -17 -16 -6 -30 7 -9 18 -16 23
-16 6 0 22 -10 37 -22 75 -62 233 -173 366 -256 22 -14 51 -33 65 -42 14 -10
43 -27 65 -39 22 -12 63 -35 90 -52 28 -16 68 -38 90 -49 22 -11 77 -39 121
-63 45 -23 110 -55 145 -71 138 -61 169 -80 169 -102 0 -19 -26 -87 -65 -169
-8 -16 -21 -49 -30 -73 -8 -24 -24 -57 -35 -73 -35 -49 -10 -84 81 -110 24 -7
49 -16 55 -21 15 -11 121 -47 344 -118 36 -11 92 -29 125 -40 33 -10 83 -23
110 -29 51 -9 170 -37 305 -71 41 -11 113 -24 160 -30 47 -5 121 -17 165 -25
44 -9 170 -22 280 -31 110 -8 245 -18 300 -23 188 -16 671 7 930 45 218 32
351 53 365 58 8 3 67 17 130 31 138 30 213 48 300 75 36 10 112 33 170 50 58
18 125 40 150 50 25 10 65 25 90 33 96 32 186 69 203 84 22 21 22 44 -2 75
-11 13 -23 38 -27 54 -4 16 -20 56 -36 89 -15 33 -28 67 -28 76 0 9 -6 22 -14
28 -20 16 -30 69 -17 84 10 13 74 46 179 93 35 16 96 46 135 66 40 21 90 47
112 58 22 11 63 33 90 49 28 17 68 40 90 52 22 12 51 29 65 39 14 9 44 29 68
43 126 79 274 182 343 239 25 20 58 42 73 47 50 19 18 51 -51 51 -21 0 -55 5
-76 11 -20 5 -88 21 -150 34 -255 56 -423 109 -430 137 -3 11 -2 97 3 191 5
95 10 238 10 318 0 129 -2 150 -19 170 l-19 23 -40 -34 c-22 -19 -56 -46 -76
-60 -20 -14 -51 -35 -69 -48 -41 -29 -183 -121 -222 -143 -193 -111 -497 -256
-635 -304 -72 -25 -288 -96 -308 -101 -14 -4 -8 -63 10 -97 5 -11 20 -60 34
-110 13 -51 30 -117 39 -147 17 -61 20 -126 6 -135 -14 -8 -196 -53 -265 -65
-34 -6 -104 -20 -156 -30 -327 -66 -817 -83 -1190 -41 -260 29 -627 96 -717
132 -28 11 -30 49 -8 129 8 30 24 89 35 130 11 41 29 105 41 142 23 72 21 98
-8 98 -10 0 -70 19 -133 41 -63 22 -140 48 -170 58 -30 10 -68 26 -85 35 -16
9 -34 16 -39 16 -20 0 -420 199 -491 244 -16 11 -46 29 -65 41 -19 12 -57 36
-85 53 -73 46 -180 122 -224 160 -21 17 -41 32 -44 32 -3 0 -13 -10 -21 -22z"></path>
</g>
</svg>