 <svg version="1.0" xmlns="http://www.w3.org/2000/svg" width="700.000000pt" height="700.000000pt" viewBox="0 0 700.000000 700.000000" preserveAspectRatio="xMidYMid meet">
<metadata>
Created by potrace 1.12, written by Peter Selinger 2001-2015
</metadata>
<g transform="translate(0.000000,700.000000) scale(0.100000,-0.100000)" fill="#000000" stroke="none">
<path d="M2730 6990 c0 -22 -69 -43 -189 -56 -69 -8 -160 -26 -201 -39 -41
-14 -102 -30 -134 -36 -33 -6 -80 -21 -105 -34 -25 -13 -68 -29 -96 -35 -46
-10 -90 -28 -269 -116 -37 -19 -74 -34 -80 -34 -7 0 -21 -10 -32 -21 -10 -12
-37 -30 -59 -40 -22 -11 -54 -29 -71 -42 -18 -12 -45 -30 -60 -39 -28 -17 -51
-35 -169 -128 -31 -25 -71 -56 -88 -70 -44 -34 -232 -236 -265 -286 -15 -22
-35 -49 -45 -60 -44 -48 -76 -92 -96 -131 -11 -23 -25 -45 -31 -48 -6 -4 -24
-33 -40 -65 -16 -32 -34 -61 -39 -64 -5 -4 -17 -28 -27 -54 -10 -26 -26 -59
-36 -74 -10 -15 -27 -51 -37 -80 -10 -29 -30 -75 -45 -102 -14 -27 -26 -58
-26 -70 0 -12 -13 -48 -29 -81 -15 -34 -34 -92 -40 -130 -7 -39 -21 -89 -31
-111 -22 -52 -27 -72 -44 -209 -8 -60 -21 -141 -30 -180 -49 -228 -47 -750 5
-958 11 -43 24 -114 30 -159 5 -45 20 -106 33 -137 13 -31 29 -85 35 -121 7
-36 23 -83 35 -105 13 -22 28 -62 35 -89 7 -27 23 -68 37 -91 13 -23 31 -65
39 -93 9 -28 20 -54 26 -58 6 -4 22 -32 36 -62 13 -31 35 -69 49 -85 13 -16
24 -35 24 -42 0 -7 11 -26 24 -42 13 -15 35 -52 50 -80 14 -29 30 -53 35 -53
5 0 16 -15 25 -34 9 -19 32 -57 51 -86 19 -29 35 -57 35 -63 0 -5 11 -25 25
-43 14 -19 32 -52 40 -75 8 -22 23 -52 34 -67 10 -15 24 -47 31 -72 7 -25 23
-63 36 -85 13 -22 28 -65 35 -95 6 -30 22 -79 35 -107 13 -29 30 -94 39 -145
8 -51 24 -131 36 -178 22 -82 22 -107 26 -707 l4 -623 140 0 140 0 -4 618 c-5
614 -8 675 -42 782 -8 25 -19 84 -25 132 -6 47 -21 110 -34 140 -12 29 -28 82
-35 118 -7 36 -23 83 -36 105 -12 22 -26 56 -30 75 -4 19 -18 54 -32 78 -13
24 -33 68 -44 99 -10 31 -26 64 -34 73 -8 9 -24 38 -36 65 -12 28 -32 63 -45
78 -13 16 -24 35 -24 42 0 7 -15 32 -34 54 -19 23 -38 51 -42 64 -4 12 -20 38
-35 57 -16 19 -29 40 -29 47 0 6 -11 24 -24 40 -13 16 -36 54 -51 86 -15 31
-33 61 -41 68 -8 6 -14 17 -14 25 0 7 -18 47 -40 89 -22 42 -40 82 -40 89 0 7
-11 35 -26 62 -14 27 -33 81 -44 119 -10 39 -27 91 -39 117 -11 26 -25 84 -31
130 -6 46 -20 116 -31 156 -33 123 -42 256 -36 551 4 249 7 288 31 396 14 66
31 157 36 203 6 46 22 111 35 145 13 34 29 89 35 122 5 32 21 81 35 107 14 26
30 69 35 95 6 26 22 64 34 83 13 19 30 53 36 75 7 22 23 54 35 70 12 17 27 45
33 63 6 19 23 47 37 64 14 17 32 44 41 62 8 17 34 58 59 91 25 33 53 73 64 88
62 94 331 348 458 435 26 18 64 43 83 57 19 14 60 37 90 51 30 15 64 35 75 44
11 10 43 25 72 34 28 10 57 24 64 32 6 8 37 21 68 30 31 9 76 27 101 39 25 12
81 30 124 40 44 9 98 25 122 35 23 10 96 26 161 35 65 9 144 24 176 32 101 29
92 137 95 -1071 l2 -1054 -25 -30 c-14 -17 -47 -39 -73 -48 -80 -31 -223 -143
-316 -249 -112 -128 -184 -251 -221 -380 -13 -44 -30 -99 -39 -122 -35 -93
-29 -429 9 -502 7 -15 21 -56 30 -91 9 -36 30 -86 46 -111 16 -25 29 -50 29
-56 0 -15 79 -131 130 -192 41 -48 153 -150 229 -209 51 -39 199 -111 259
-126 31 -8 84 -25 117 -37 54 -21 77 -23 240 -23 161 1 186 3 240 23 33 12 89
29 125 37 36 8 81 25 100 38 19 12 49 27 66 33 17 6 52 27 78 47 41 31 55 36
100 36 44 0 59 -6 106 -40 73 -52 115 -83 172 -125 25 -18 61 -41 80 -51 18
-9 47 -29 64 -43 32 -26 104 -77 159 -112 17 -10 50 -34 75 -52 l45 -34 0
-139 0 -139 40 -78 c49 -96 107 -153 205 -203 72 -37 79 -39 170 -39 91 0 98
2 170 39 98 50 156 107 205 203 38 75 40 82 40 173 -1 92 -2 98 -42 175 -54
102 -92 141 -189 195 -79 44 -80 44 -179 44 -75 0 -108 -4 -132 -17 -18 -9
-40 -17 -51 -17 -22 0 -127 53 -156 78 -12 10 -34 27 -51 37 -16 10 -37 24
-45 32 -14 13 -72 52 -145 98 -17 11 -45 31 -62 45 -17 14 -43 33 -59 43 -16
9 -45 28 -64 42 -19 14 -59 42 -88 62 -63 45 -70 63 -43 106 11 17 34 59 51
92 16 33 39 76 50 95 11 19 20 43 20 52 0 10 14 59 32 110 31 91 32 97 32 268
0 163 -2 180 -27 250 -14 41 -32 100 -40 130 -8 30 -26 73 -40 94 -15 21 -27
44 -27 51 0 29 -110 176 -194 260 -91 90 -188 162 -278 204 -27 13 -57 34 -68
48 -20 26 -20 36 -18 1079 3 1219 -9 1099 109 1071 39 -9 128 -24 197 -33 71
-9 147 -25 172 -36 25 -11 79 -26 120 -34 41 -8 96 -26 122 -39 26 -14 68 -29
94 -35 26 -6 59 -19 74 -30 15 -10 52 -29 83 -40 31 -12 59 -26 63 -31 3 -6
31 -21 62 -35 31 -14 66 -33 77 -44 11 -10 31 -24 45 -30 14 -5 48 -29 75 -51
28 -22 73 -58 100 -79 63 -47 186 -170 245 -244 139 -174 175 -223 184 -253 4
-12 20 -38 36 -58 17 -21 30 -43 30 -50 0 -7 12 -30 26 -51 15 -21 35 -61 44
-89 10 -27 29 -70 43 -95 14 -25 28 -63 32 -85 4 -22 17 -58 30 -80 13 -22 29
-69 36 -105 7 -36 23 -93 36 -128 13 -35 28 -98 34 -140 5 -42 19 -111 30
-152 12 -41 27 -126 34 -188 10 -89 19 -121 38 -150 34 -51 72 -117 102 -179
14 -28 32 -56 40 -63 8 -7 26 -35 40 -63 14 -29 43 -81 65 -117 21 -36 53 -90
70 -120 17 -30 49 -84 70 -120 21 -36 53 -90 69 -120 17 -30 49 -84 71 -120
22 -36 52 -90 67 -120 14 -30 34 -66 45 -79 10 -13 18 -40 18 -62 0 -49 -44
-101 -114 -135 -28 -14 -68 -34 -88 -44 -21 -11 -55 -29 -75 -40 -21 -10 -58
-29 -83 -40 -25 -11 -56 -27 -70 -35 -14 -8 -45 -24 -70 -35 -25 -11 -56 -27
-70 -35 -14 -8 -44 -24 -67 -35 -26 -13 -45 -29 -48 -43 -3 -12 -6 -242 -7
-512 l-3 -490 -27 -60 c-15 -33 -32 -80 -38 -105 -7 -25 -20 -54 -30 -65 -11
-11 -27 -38 -36 -60 -17 -42 -148 -200 -174 -209 -8 -3 -33 -22 -54 -41 -22
-19 -45 -35 -51 -35 -6 0 -32 -13 -58 -30 -26 -16 -73 -36 -104 -45 -32 -8
-82 -24 -111 -35 -77 -30 -307 -28 -601 6 -211 23 -226 24 -238 8 -9 -13 -12
-136 -13 -520 l0 -504 140 0 140 0 0 344 c0 423 -11 393 138 377 150 -16 366
-14 432 4 30 8 91 24 135 35 66 17 195 69 241 98 159 100 309 238 378 345 20
31 40 58 45 62 5 3 19 30 30 61 12 30 30 67 40 82 11 15 24 52 31 82 6 30 19
73 27 95 33 85 36 122 42 531 7 474 2 449 84 473 23 7 56 23 72 35 17 13 48
29 70 36 22 7 49 21 61 31 11 10 42 26 70 35 27 9 67 30 88 45 22 16 46 29 54
29 17 0 132 114 132 130 0 7 12 35 26 64 30 58 42 161 26 216 -19 64 -73 185
-91 205 -10 11 -28 40 -40 65 -32 65 -83 155 -102 176 -9 11 -26 40 -37 65
-11 26 -25 50 -31 53 -6 4 -18 24 -27 44 -8 20 -26 53 -40 73 -27 39 -58 94
-99 176 -14 28 -31 56 -39 62 -7 6 -21 30 -32 53 -10 24 -31 61 -46 82 -16 21
-28 44 -28 50 0 6 -15 33 -34 59 -26 36 -37 66 -46 120 -6 40 -20 104 -30 142
-11 39 -24 111 -30 160 -6 50 -22 123 -36 162 -14 40 -29 100 -35 134 -5 34
-20 82 -33 108 -13 25 -29 71 -36 101 -7 30 -23 73 -36 96 -13 22 -30 62 -38
88 -8 26 -21 55 -30 64 -8 10 -24 43 -36 74 -12 32 -26 60 -31 64 -5 3 -20 26
-33 52 -32 63 -147 238 -185 282 -16 19 -45 53 -63 74 -123 146 -341 343 -477
429 -80 51 -159 98 -201 118 -25 12 -61 32 -80 45 -19 13 -48 26 -65 30 -16 4
-58 22 -93 41 -35 18 -73 33 -84 33 -11 0 -50 13 -86 29 -37 16 -105 36 -151
46 -47 9 -92 20 -102 25 -26 15 -95 28 -231 44 -137 17 -167 25 -187 50 -12
14 -67 16 -512 16 -317 0 -499 -4 -499 -10z m612 -287 c17 -15 18 -61 18
-1038 0 -781 -3 -1024 -12 -1033 -17 -17 -239 -17 -256 0 -9 9 -12 253 -12
1034 0 916 2 1024 16 1038 23 24 220 23 246 -1z m94 -2391 c21 -10 64 -27 95
-36 125 -36 335 -209 394 -326 10 -19 26 -46 37 -59 10 -13 26 -49 34 -80 9
-31 26 -74 38 -96 19 -36 21 -56 21 -215 0 -158 -3 -179 -21 -215 -12 -22 -29
-65 -38 -96 -8 -31 -24 -67 -34 -80 -11 -13 -28 -42 -40 -64 -31 -60 -188
-217 -250 -249 -17 -9 -48 -27 -68 -41 -20 -14 -43 -25 -51 -25 -8 0 -49 -14
-91 -32 -76 -32 -79 -32 -242 -32 -135 0 -173 4 -210 18 -25 10 -72 28 -105
40 -105 37 -246 140 -330 242 -46 56 -120 177 -130 214 -4 14 -19 54 -33 90
-25 61 -27 75 -27 235 0 157 2 174 23 220 13 28 31 72 39 99 35 116 212 325
323 381 19 10 46 26 59 37 13 10 49 26 80 34 31 9 70 24 86 32 48 25 101 31
256 28 121 -3 152 -7 185 -24z m1682 -2244 c78 -64 84 -126 19 -195 -35 -37
-51 -46 -87 -50 -39 -4 -50 -1 -85 27 -50 40 -64 65 -65 114 0 33 7 46 49 87
42 42 54 49 88 49 31 0 51 -8 81 -32z"></path>
<path d="M3115 4050 c-58 -12 -195 -78 -233 -111 -18 -16 -36 -29 -41 -29 -18
0 -96 -120 -134 -204 -67 -151 -63 -279 13 -436 69 -145 124 -199 280 -276
l95 -48 120 0 120 -1 95 44 c52 23 106 53 120 66 14 12 32 26 41 31 26 14 87
94 110 144 11 25 32 70 47 100 25 50 27 66 27 170 0 104 -3 120 -27 170 -14
30 -33 72 -42 93 -8 20 -30 56 -48 78 -32 40 -40 48 -102 100 -17 15 -73 46
-124 69 -84 37 -103 42 -185 45 -51 2 -110 0 -132 -5z m247 -313 c37 -24 71
-58 95 -95 37 -54 38 -60 38 -142 0 -82 -1 -88 -38 -142 -24 -37 -58 -71 -95
-95 -54 -37 -60 -38 -142 -38 -82 0 -88 1 -142 38 -37 24 -71 58 -95 95 -37
54 -38 60 -38 142 0 82 1 88 38 143 21 32 50 65 65 74 15 9 36 24 47 34 28 24
49 28 135 26 69 -2 80 -5 132 -40z"></path>
</g>
</svg>