 <svg version="1.0" xmlns="http://www.w3.org/2000/svg" width="700.000000pt" height="700.000000pt" viewBox="0 0 700.000000 700.000000" preserveAspectRatio="xMidYMid meet">
<metadata>
Created by potrace 1.12, written by Peter Selinger 2001-2015
</metadata>
<g transform="translate(0.000000,700.000000) scale(0.100000,-0.100000)" fill="#000000" stroke="none">
<path d="M5593 6130 c-28 -10 -69 -30 -90 -44 -51 -35 -104 -35 -157 2 -55 38
-128 37 -183 -1 -53 -37 -113 -37 -166 0 -32 22 -51 28 -97 28 -46 0 -65 -6
-97 -28 -26 -18 -52 -27 -78 -27 -26 0 -52 9 -78 27 -32 22 -51 28 -97 28 -46
0 -65 -6 -97 -28 -52 -36 -104 -36 -155 -1 -58 41 -111 42 -180 5 -73 -39
-120 -40 -173 -4 -32 22 -52 27 -95 27 -43 0 -63 -5 -95 -27 -53 -36 -100 -35
-173 4 -69 37 -122 36 -180 -5 -51 -35 -103 -35 -155 1 -32 22 -51 28 -97 28
-46 0 -65 -6 -97 -28 -52 -36 -105 -36 -157 -1 -57 39 -138 39 -192 2 -53 -37
-105 -37 -157 -1 -56 39 -135 39 -192 0 -54 -37 -111 -37 -166 0 -58 38 -131
38 -185 1 -28 -20 -53 -28 -82 -28 -30 0 -55 8 -84 28 -56 36 -132 38 -178 3
-53 -39 -95 -38 -177 4 -39 20 -87 39 -107 42 -71 11 -66 189 -66 -2299 0
-1258 4 -2284 10 -2351 7 -97 14 -129 39 -185 17 -37 35 -86 41 -110 6 -23 23
-57 39 -75 15 -17 37 -48 49 -68 35 -59 148 -150 251 -204 l96 -50 1915 0
1915 0 50 24 c28 13 83 36 122 51 82 31 114 55 216 156 105 104 127 142 195
330 23 61 44 138 47 170 11 95 -9 233 -43 301 -16 32 -35 76 -42 98 -16 49
-67 119 -146 198 -93 94 -139 127 -219 157 -79 30 -129 61 -145 90 -6 12 -10
660 -10 1860 0 1900 0 1891 -36 1912 -5 3 -32 -3 -61 -12z m-3767 -227 c26
-17 57 -28 91 -31 46 -4 58 -1 100 28 58 38 108 37 169 -4 56 -38 124 -36 183
4 57 39 104 40 157 3 32 -23 50 -28 99 -28 50 0 67 5 100 28 49 35 102 33 161
-7 56 -38 123 -36 184 4 59 39 99 39 162 -1 42 -27 55 -31 101 -27 34 3 65 14
91 31 53 36 97 35 158 -4 42 -27 55 -31 101 -27 34 3 65 14 91 31 25 17 52 27
76 27 24 0 51 -10 76 -27 26 -17 57 -28 91 -31 46 -4 59 0 101 27 61 39 105
40 158 4 26 -17 57 -28 91 -31 46 -4 59 0 101 27 63 40 103 40 162 1 35 -23
56 -30 95 -30 39 0 60 7 95 30 59 39 99 39 162 -1 42 -28 55 -31 102 -27 34 3
65 13 85 28 51 36 108 38 156 4 29 -20 56 -29 97 -32 37 -3 63 -10 73 -22 14
-15 15 -200 16 -1823 1 -1664 2 -1807 18 -1820 9 -8 48 -20 87 -26 109 -17
230 -82 328 -178 48 -48 86 -95 98 -123 11 -25 32 -72 48 -105 47 -98 49 -314
4 -399 -10 -17 -32 -60 -50 -96 -50 -100 -153 -196 -284 -262 l-105 -53 -1597
0 c-1477 0 -1599 1 -1614 17 -23 23 -13 55 37 118 22 28 50 79 61 113 11 34
29 78 39 99 29 56 42 169 37 318 -4 113 -8 143 -27 185 -13 28 -33 80 -46 116
-12 36 -44 94 -69 129 -61 82 -59 106 8 138 l49 24 -7 56 c-4 31 -10 60 -14
63 -8 8 -60 13 -103 10 -20 -1 -28 -8 -34 -28 -10 -42 -33 -73 -55 -73 -26 0
-97 37 -137 71 -26 22 -45 28 -110 35 -108 10 -268 -8 -304 -35 -15 -11 -52
-31 -82 -45 -30 -13 -71 -42 -92 -65 -43 -46 -78 -53 -96 -20 -8 16 -11 503
-10 1832 1 1620 3 1812 16 1828 10 11 36 18 73 21 40 3 68 12 96 31 51 36 101
36 152 0z m225 -3723 c106 -20 258 -144 306 -250 13 -30 39 -84 56 -119 l32
-65 0 -170 0 -171 -53 -115 c-42 -90 -66 -129 -111 -175 -113 -117 -225 -165
-356 -150 -70 8 -102 20 -175 69 -57 39 -170 158 -170 180 0 7 -19 51 -42 97
l-43 84 0 180 c0 179 0 181 28 235 16 30 37 76 47 102 25 66 113 161 197 214
97 60 173 75 284 54z"></path>
<path d="M2026 5144 c-21 -20 -21 -102 0 -132 l15 -22 934 0 c801 0 936 2 948
14 9 10 15 35 15 71 0 36 -6 61 -15 71 -12 12 -147 14 -948 14 -835 0 -935 -2
-949 -16z"></path>
<path d="M4477 5146 c-9 -10 -14 -35 -14 -71 0 -87 -8 -85 262 -85 230 0 234
0 249 22 21 30 21 112 0 132 -22 23 -475 24 -497 2z"></path>
<path d="M2035 4620 c-12 -13 -18 -36 -18 -70 0 -34 6 -57 18 -70 18 -20 34
-20 765 -20 l747 0 20 23 c14 15 21 36 21 67 0 31 -7 52 -21 68 l-20 22 -747
0 c-731 0 -747 0 -765 -20z"></path>
<path d="M4481 4616 c-30 -32 -29 -105 2 -134 21 -20 31 -21 244 -20 257 1
256 0 256 88 0 88 1 87 -257 88 -220 1 -224 1 -245 -22z"></path>
<path d="M2029 4093 c-18 -21 -17 -116 0 -137 12 -14 105 -16 940 -16 763 0
930 2 946 14 12 9 20 30 23 68 8 97 101 88 -962 88 -857 0 -935 -1 -947 -17z"></path>
<path d="M4475 4093 c-13 -13 -16 -29 -13 -69 7 -87 -1 -84 257 -84 270 0 266
-2 266 90 0 43 -5 64 -15 70 -8 5 -119 10 -247 10 -204 0 -234 -2 -248 -17z"></path>
<path d="M2033 3568 c-26 -30 -26 -107 1 -137 19 -21 19 -21 766 -21 731 0
747 0 765 20 12 13 18 36 18 70 0 34 -6 57 -18 70 -18 20 -34 20 -765 20
l-747 0 -20 -22z"></path>
<path d="M4485 3570 c-12 -13 -18 -36 -18 -70 0 -90 0 -90 258 -90 217 0 222
0 242 23 26 29 26 106 -1 136 -18 20 -28 21 -241 21 -208 0 -223 -1 -240 -20z"></path>
<path d="M2029 3044 c-17 -21 -18 -116 0 -137 12 -16 90 -17 947 -17 1063 0
970 -9 962 88 -3 38 -11 59 -23 68 -16 12 -183 14 -946 14 -835 0 -928 -2
-940 -16z"></path>
<path d="M4479 3044 c-7 -8 -14 -39 -17 -68 -7 -87 -10 -86 261 -86 128 0 239
5 247 10 10 6 15 27 15 70 0 92 4 90 -266 90 -193 0 -228 -2 -240 -16z"></path>
<path d="M2765 2353 c-34 -9 -42 -21 -44 -74 -2 -69 9 -79 81 -79 46 0 60 4
66 18 10 24 7 111 -4 121 -12 11 -74 20 -99 14z"></path>
<path d="M3115 2351 c-23 -5 -30 -13 -36 -41 -4 -19 -4 -51 0 -70 5 -28 12
-35 39 -41 18 -4 46 -4 64 0 27 6 34 13 39 41 9 41 0 101 -15 105 -31 9 -64
12 -91 6z"></path>
<path d="M3465 2351 c-23 -5 -30 -13 -36 -41 -4 -19 -4 -51 0 -70 5 -28 12
-35 39 -41 18 -4 46 -4 64 0 27 6 34 13 39 41 9 41 0 101 -15 105 -31 9 -64
12 -91 6z"></path>
<path d="M3815 2351 c-23 -5 -30 -13 -36 -41 -4 -19 -4 -51 0 -70 5 -28 12
-35 39 -41 18 -4 46 -4 64 0 27 6 34 13 39 41 9 41 0 101 -15 105 -31 9 -64
12 -91 6z"></path>
<path d="M4165 2351 c-23 -5 -30 -13 -36 -41 -4 -19 -4 -51 0 -70 5 -28 12
-35 39 -41 18 -4 46 -4 64 0 27 6 34 13 39 41 9 41 0 101 -15 105 -31 9 -64
12 -91 6z"></path>
<path d="M4515 2351 c-23 -5 -30 -13 -36 -41 -4 -19 -4 -51 0 -70 5 -28 12
-35 39 -41 18 -4 46 -4 64 0 27 6 34 13 39 41 9 41 0 101 -15 105 -31 9 -64
12 -91 6z"></path>
<path d="M4834 2339 c-11 -18 -8 -119 4 -131 17 -17 112 -13 130 5 13 13 14
26 6 74 l-9 58 -62 3 c-39 2 -64 -1 -69 -9z"></path>
<path d="M5173 2334 c-3 -9 -2 -41 3 -73 l9 -56 65 0 64 0 7 35 c4 19 4 51 0
70 l-7 35 -67 3 c-55 2 -68 0 -74 -14z"></path>
<path d="M1935 1731 c-43 -25 -82 -75 -90 -112 -18 -79 24 -167 96 -205 26
-13 32 -13 58 0 67 35 109 122 96 198 -8 44 -52 101 -96 124 -34 17 -28 18
-64 -5z"></path>
</g>
</svg>