 <svg version="1.0" xmlns="http://www.w3.org/2000/svg" width="700.000000pt" height="700.000000pt" viewBox="0 0 700.000000 700.000000" preserveAspectRatio="xMidYMid meet">
<metadata>
Created by potrace 1.12, written by Peter Selinger 2001-2015
</metadata>
<g transform="translate(0.000000,700.000000) scale(0.100000,-0.100000)" fill="#000000" stroke="none">
<path d="M2045 6546 c-16 -7 -48 -32 -70 -55 l-40 -42 -5 -144 c-4 -121 -8
-147 -23 -162 -16 -16 -49 -18 -365 -23 -337 -5 -348 -6 -382 -27 -19 -12 -55
-33 -80 -47 -59 -32 -98 -74 -151 -166 l-44 -75 0 -2305 0 -2306 44 -74 c55
-93 93 -135 151 -166 25 -14 61 -35 80 -47 l35 -22 2305 0 2305 0 81 48 c96
57 126 87 185 187 l44 74 0 2306 0 2305 -48 82 c-53 91 -89 125 -192 186 l-70
42 -347 5 c-316 5 -349 7 -365 23 -15 15 -19 41 -23 162 l-5 144 -45 46 c-25
25 -61 50 -80 56 -20 6 -88 9 -152 7 -129 -3 -143 -9 -201 -81 -29 -35 -30
-40 -36 -181 -4 -99 -10 -149 -19 -158 -19 -19 -2045 -19 -2064 0 -9 9 -15 59
-19 158 -6 141 -7 146 -36 181 -59 73 -71 78 -211 81 -92 1 -135 -2 -157 -12z
m214 -182 c20 -26 21 -38 21 -329 0 -283 -1 -304 -19 -326 -25 -31 -108 -34
-140 -5 -21 19 -21 27 -21 337 0 317 0 318 22 333 13 9 43 16 69 16 39 0 51
-5 68 -26z m2619 10 c22 -15 22 -16 22 -333 0 -310 0 -318 -21 -337 -32 -29
-115 -26 -140 5 -18 22 -19 43 -19 326 0 291 1 303 21 329 17 21 29 26 68 26
26 0 56 -7 69 -16z m-2972 -438 c17 -13 20 -31 24 -158 3 -86 10 -152 17 -165
7 -12 31 -37 53 -56 36 -31 50 -36 116 -42 42 -4 108 -4 147 0 67 7 74 10 120
54 58 56 66 85 67 235 0 88 3 113 17 128 15 17 60 18 1031 18 931 0 1017 -1
1034 -17 15 -14 18 -32 18 -127 1 -152 9 -181 67 -237 46 -44 53 -47 120 -54
39 -4 105 -4 147 0 66 6 80 11 116 42 22 19 46 44 53 56 7 13 14 79 17 165 4
127 7 145 24 158 16 11 77 14 325 14 187 0 322 -4 346 -11 52 -14 160 -123
174 -177 12 -42 15 -641 3 -658 -4 -6 -17 -16 -29 -23 -31 -16 -4795 -16
-4826 0 -12 7 -25 17 -29 23 -4 6 -8 152 -8 325 0 298 1 317 21 358 25 51 118
139 162 152 18 5 172 10 343 10 253 1 314 -2 330 -13z m4026 -1053 c17 -15 18
-85 18 -1811 0 -1393 -3 -1804 -12 -1836 -17 -55 -122 -161 -175 -175 -26 -8
-721 -11 -2272 -11 l-2235 0 -43 21 c-54 26 -139 119 -153 167 -6 25 -10 631
-10 1831 0 1656 1 1796 17 1813 15 17 104 18 2431 18 2234 0 2417 -1 2434 -17z"></path>
<path d="M1720 4542 c-14 -2 -30 -8 -35 -12 -16 -13 -18 -127 -3 -136 20 -13
128 -11 139 2 12 15 8 123 -6 133 -14 11 -65 18 -95 13z"></path>
<path d="M2070 4542 c-14 -2 -30 -8 -35 -12 -16 -13 -18 -127 -3 -136 20 -13
128 -11 139 2 12 15 8 123 -6 133 -14 11 -65 18 -95 13z"></path>
<path d="M2420 4542 c-14 -2 -30 -8 -35 -12 -16 -13 -18 -127 -3 -136 20 -13
128 -11 139 2 12 15 8 123 -6 133 -14 11 -65 18 -95 13z"></path>
<path d="M2770 4542 c-14 -2 -30 -8 -35 -12 -16 -13 -18 -127 -3 -136 20 -13
128 -11 139 2 12 15 8 123 -6 133 -14 11 -65 18 -95 13z"></path>
<path d="M3120 4542 c-14 -2 -30 -8 -35 -12 -16 -13 -18 -127 -3 -136 20 -13
128 -11 139 2 12 15 8 123 -6 133 -14 11 -65 18 -95 13z"></path>
<path d="M3470 4542 c-14 -2 -30 -8 -35 -12 -16 -13 -18 -127 -3 -136 20 -13
128 -11 139 2 12 15 8 123 -6 133 -14 11 -65 18 -95 13z"></path>
<path d="M3820 4542 c-14 -2 -30 -8 -35 -12 -16 -13 -18 -127 -3 -136 20 -13
128 -11 139 2 12 15 8 123 -6 133 -14 11 -65 18 -95 13z"></path>
<path d="M4170 4542 c-14 -2 -30 -8 -35 -12 -16 -13 -18 -127 -3 -136 20 -13
128 -11 139 2 12 15 8 123 -6 133 -14 11 -65 18 -95 13z"></path>
<path d="M4520 4542 c-14 -2 -30 -8 -35 -12 -16 -13 -18 -127 -3 -136 20 -13
128 -11 139 2 12 15 8 123 -6 133 -14 11 -65 18 -95 13z"></path>
<path d="M4870 4542 c-14 -2 -30 -8 -35 -12 -16 -13 -18 -127 -3 -136 20 -13
128 -11 139 2 12 15 8 123 -6 133 -14 11 -65 18 -95 13z"></path>
<path d="M5220 4542 c-14 -2 -30 -8 -35 -12 -16 -13 -18 -127 -3 -136 20 -13
128 -11 139 2 12 15 8 123 -6 133 -14 11 -65 18 -95 13z"></path>
<path d="M1332 4526 c-12 -17 -14 -116 -3 -130 11 -13 117 -16 137 -4 13 8 13
116 1 136 -10 16 -123 14 -135 -2z"></path>
<path d="M5531 4527 c-12 -15 -12 -125 0 -132 3 -2 33 -6 67 -8 80 -6 88 3 76
85 l-9 63 -61 3 c-43 2 -64 -1 -73 -11z"></path>
<path d="M2912 3839 c-24 -4 -73 -28 -111 -53 -54 -36 -75 -58 -109 -115 -55
-93 -65 -139 -60 -272 4 -89 8 -114 25 -137 11 -15 28 -42 37 -60 23 -44 83
-110 116 -127 47 -24 170 -48 219 -42 25 3 75 15 111 26 59 18 72 28 122 86
51 59 58 73 77 154 27 112 26 170 -1 278 -18 73 -28 95 -62 132 -114 123 -216
160 -364 130z m125 -180 c35 -13 80 -55 100 -94 23 -44 21 -213 -4 -262 -26
-54 -84 -85 -146 -80 -68 6 -98 32 -125 108 -31 85 -27 151 16 242 24 53 38
71 64 82 40 17 58 18 95 4z"></path>
<path d="M4074 3815 c-39 -7 -80 -17 -91 -24 -19 -10 -66 -66 -120 -144 -12
-18 -33 -45 -46 -62 -13 -16 -34 -49 -45 -72 -12 -22 -40 -62 -62 -88 -22 -25
-40 -50 -40 -56 0 -5 -15 -26 -34 -46 -18 -21 -42 -56 -54 -78 -11 -22 -30
-49 -42 -60 -12 -11 -31 -38 -42 -60 -12 -22 -36 -57 -54 -78 -19 -20 -34 -41
-34 -46 0 -4 -11 -20 -26 -36 -14 -15 -43 -56 -65 -91 -23 -35 -44 -64 -48
-64 -4 0 -15 -15 -25 -32 -11 -18 -35 -51 -55 -74 -20 -22 -44 -54 -53 -70
-29 -49 -85 -127 -121 -169 -19 -22 -41 -54 -50 -71 -9 -17 -23 -37 -32 -44
-23 -19 -82 -113 -102 -161 -24 -60 -14 -72 54 -64 111 13 127 21 191 93 32
37 66 81 75 97 8 17 25 39 37 50 12 11 31 38 42 60 12 22 34 55 49 73 16 18
37 49 48 70 10 20 29 46 41 57 12 11 33 41 45 66 13 25 31 51 40 59 9 7 25 30
35 51 11 20 38 58 60 84 22 25 40 50 40 55 0 5 18 30 40 55 22 25 40 50 40 55
0 5 18 30 40 55 22 26 48 61 57 78 8 18 30 49 47 69 67 79 114 142 210 283 19
28 41 57 49 63 27 23 96 137 103 170 6 29 -8 64 -25 61 -3 0 -38 -7 -77 -14z"></path>
<path d="M3890 2902 c-83 -24 -95 -31 -152 -89 -40 -41 -51 -61 -72 -137 -32
-109 -33 -189 -4 -304 19 -75 28 -93 67 -136 70 -74 151 -123 219 -131 82 -9
174 8 225 43 23 16 53 36 67 44 14 9 48 53 75 99 l50 84 0 140 0 140 -44 73
c-25 40 -64 90 -87 112 -75 69 -224 96 -344 62z m199 -196 c26 -23 71 -137 71
-179 0 -46 -27 -133 -56 -184 -19 -33 -33 -45 -64 -53 -55 -15 -80 -6 -135 50
-44 45 -48 52 -55 117 -8 74 1 167 19 202 6 11 28 32 49 46 32 23 45 26 94 23
37 -3 64 -11 77 -22z"></path>
<path d="M1331 1555 c-14 -18 -21 -74 -10 -81 6 -3 8 -13 5 -21 -11 -29 14
-43 74 -43 58 0 89 17 75 40 -4 6 -1 17 5 25 9 11 10 18 1 29 -6 7 -9 20 -5
29 3 8 -1 19 -8 23 -19 12 -128 12 -137 -1z"></path>
<path d="M1679 1553 c-6 -7 -8 -17 -4 -23 4 -6 1 -17 -5 -25 -10 -12 -10 -18
0 -30 6 -8 9 -19 5 -25 -14 -23 17 -40 75 -40 58 0 89 17 75 40 -4 6 -1 17 5
25 9 11 10 18 1 29 -6 7 -9 20 -5 29 3 8 -1 19 -8 23 -21 13 -128 11 -139 -3z"></path>
<path d="M2029 1553 c-6 -7 -8 -17 -4 -23 4 -6 1 -17 -5 -25 -10 -12 -10 -18
0 -30 6 -8 9 -19 5 -25 -14 -23 17 -40 75 -40 58 0 89 17 75 40 -4 6 -1 17 5
25 9 11 10 18 1 29 -6 7 -9 20 -5 29 3 8 -1 19 -8 23 -21 13 -128 11 -139 -3z"></path>
<path d="M2379 1553 c-6 -7 -8 -17 -4 -23 4 -6 1 -17 -5 -25 -10 -12 -10 -18
0 -30 6 -8 9 -19 5 -25 -14 -23 17 -40 75 -40 58 0 89 17 75 40 -4 6 -1 17 5
25 9 11 10 18 1 29 -6 7 -9 20 -5 29 3 8 -1 19 -8 23 -21 13 -128 11 -139 -3z"></path>
<path d="M2729 1553 c-6 -7 -8 -17 -4 -23 4 -6 1 -17 -5 -25 -10 -12 -10 -18
0 -30 6 -8 9 -19 5 -25 -14 -23 17 -40 75 -40 58 0 89 17 75 40 -4 6 -1 17 5
25 9 11 10 18 1 29 -6 7 -9 20 -5 29 3 8 -1 19 -8 23 -21 13 -128 11 -139 -3z"></path>
<path d="M3079 1553 c-6 -7 -8 -17 -4 -23 4 -6 1 -17 -5 -25 -10 -12 -10 -18
0 -30 6 -8 9 -19 5 -25 -14 -23 17 -40 75 -40 58 0 89 17 75 40 -4 6 -1 17 5
25 9 11 10 18 1 29 -6 7 -9 20 -5 29 3 8 -1 19 -8 23 -21 13 -128 11 -139 -3z"></path>
<path d="M3429 1553 c-6 -7 -8 -17 -4 -23 4 -6 1 -17 -5 -25 -10 -12 -10 -18
0 -30 6 -8 9 -19 5 -25 -14 -23 17 -40 75 -40 58 0 89 17 75 40 -4 6 -1 17 5
25 9 11 10 18 1 29 -6 7 -9 20 -5 29 3 8 -1 19 -8 23 -21 13 -128 11 -139 -3z"></path>
<path d="M3779 1553 c-6 -7 -8 -17 -4 -23 4 -6 1 -17 -5 -25 -10 -12 -10 -18
0 -30 6 -8 9 -19 5 -25 -14 -23 17 -40 75 -40 58 0 89 17 75 40 -4 6 -1 17 5
25 9 11 10 18 1 29 -6 7 -9 20 -5 29 3 8 -1 19 -8 23 -21 13 -128 11 -139 -3z"></path>
<path d="M4129 1553 c-6 -7 -8 -17 -4 -23 4 -6 1 -17 -5 -25 -10 -12 -10 -18
0 -30 6 -8 9 -19 5 -25 -14 -23 17 -40 75 -40 58 0 89 17 75 40 -4 6 -1 17 5
25 9 11 10 18 1 29 -6 7 -9 20 -5 29 3 8 -1 19 -8 23 -21 13 -128 11 -139 -3z"></path>
<path d="M4479 1553 c-6 -7 -8 -17 -4 -23 4 -6 1 -17 -5 -25 -10 -12 -10 -18
0 -30 6 -8 9 -19 5 -25 -14 -23 17 -40 75 -40 58 0 89 17 75 40 -4 6 -1 17 5
25 9 11 10 18 1 29 -6 7 -9 20 -5 29 3 8 -1 19 -8 23 -21 13 -128 11 -139 -3z"></path>
<path d="M4829 1553 c-6 -7 -8 -17 -4 -23 4 -6 1 -17 -5 -25 -10 -12 -10 -18
0 -30 6 -8 9 -19 5 -25 -14 -23 17 -40 75 -40 58 0 89 17 75 40 -4 6 -1 17 5
25 9 11 10 18 1 29 -6 7 -9 20 -5 29 3 8 -1 19 -8 23 -21 13 -128 11 -139 -3z"></path>
<path d="M5179 1553 c-6 -7 -8 -17 -4 -23 4 -6 1 -17 -5 -25 -10 -12 -10 -18
0 -30 6 -8 9 -19 5 -25 -14 -23 17 -40 75 -40 58 0 89 17 75 40 -4 6 -1 17 5
25 9 11 10 18 1 29 -6 7 -9 20 -5 29 3 8 -1 19 -8 23 -21 13 -128 11 -139 -3z"></path>
<path d="M5532 1555 c-11 -16 -10 -119 1 -132 6 -8 33 -13 68 -13 35 0 61 5
66 13 12 19 12 127 -1 134 -18 11 -127 10 -134 -2z"></path>
</g>
</svg>