 <svg version="1.0" xmlns="http://www.w3.org/2000/svg" width="700.000000pt" height="944.000000pt" viewBox="0 0 700.000000 944.000000" preserveAspectRatio="xMidYMid meet">
<metadata>
Created by potrace 1.12, written by Peter Selinger 2001-2015
</metadata>
<g transform="translate(0.000000,944.000000) scale(0.100000,-0.100000)" fill="#000000" stroke="none">
<path d="M2844 8431 c-95 -24 -140 -122 -84 -186 34 -38 150 -239 150 -259 0
-7 -8 -20 -17 -28 -23 -20 -204 -78 -243 -78 -17 0 -54 -12 -82 -26 -28 -14
-76 -32 -107 -40 -30 -8 -63 -21 -71 -29 -9 -8 -41 -24 -71 -34 -30 -11 -90
-38 -134 -62 -44 -23 -98 -51 -120 -63 -22 -11 -58 -33 -79 -48 -21 -15 -47
-28 -56 -28 -9 0 -25 -9 -36 -21 -10 -12 -31 -27 -46 -35 -120 -62 -468 -368
-620 -544 -91 -107 -268 -348 -268 -367 0 -4 -8 -16 -19 -27 -22 -24 -165
-289 -176 -326 -4 -14 -15 -38 -25 -55 -17 -28 -67 -159 -119 -315 -12 -36
-31 -101 -41 -146 -10 -44 -25 -105 -34 -135 -49 -173 -81 -642 -61 -892 13
-162 44 -385 64 -458 11 -41 27 -101 35 -134 17 -70 46 -159 87 -265 16 -41
32 -91 36 -110 3 -19 15 -43 24 -54 10 -11 24 -35 30 -53 11 -35 82 -177 110
-223 9 -14 43 -69 75 -123 32 -54 68 -113 79 -132 12 -19 33 -45 48 -59 15
-14 27 -30 27 -35 0 -16 203 -244 311 -351 100 -97 141 -134 200 -182 19 -15
56 -45 84 -68 27 -22 53 -40 56 -40 4 0 25 -15 47 -32 22 -18 55 -42 73 -53
66 -39 145 -84 201 -114 31 -17 59 -35 63 -41 3 -5 23 -14 44 -20 21 -5 50
-21 65 -35 15 -14 35 -25 44 -25 9 0 44 -12 77 -26 61 -26 125 -50 270 -101
59 -21 83 -34 92 -53 15 -31 17 -458 2 -507 -6 -18 -20 -36 -32 -40 -12 -4
-240 -8 -507 -8 -267 0 -499 -4 -516 -8 -25 -7 -34 -18 -47 -55 -15 -40 -17
-90 -16 -342 1 -345 4 -366 64 -387 59 -21 3739 -20 3800 1 62 22 66 46 63
401 -3 330 -6 347 -63 374 -24 12 -121 15 -525 18 l-495 4 -22 25 c-23 25 -23
30 -23 268 0 217 2 246 17 265 18 21 108 56 228 89 33 10 69 25 80 35 10 9 44
25 75 34 30 9 67 25 81 34 14 10 45 25 70 35 24 10 55 26 68 36 14 10 43 28
65 39 23 11 70 37 106 59 36 21 81 48 101 59 19 11 41 27 49 36 7 9 26 23 40
30 29 15 134 100 245 198 180 160 367 370 485 547 14 20 33 45 43 54 9 10 17
23 17 30 0 7 13 31 30 54 16 22 36 56 45 74 8 18 33 65 55 103 22 39 47 86 55
105 8 19 28 61 45 92 16 31 30 62 30 68 0 7 15 51 34 99 39 100 93 270 102
321 4 19 17 72 30 117 38 133 73 563 62 764 -11 213 -37 437 -62 539 -13 52
-26 111 -29 130 -7 47 -73 252 -103 318 -13 29 -24 58 -24 65 0 7 -16 44 -35
83 -19 38 -35 73 -35 78 0 11 -137 263 -164 301 -12 17 -27 41 -34 55 -14 27
-62 95 -132 185 -25 31 -52 67 -60 79 -30 44 -171 202 -232 261 -99 94 -169
158 -204 185 -47 36 -163 125 -204 155 -62 47 -205 135 -275 170 -27 14 -84
43 -125 65 -41 23 -100 50 -130 62 -30 12 -68 30 -85 40 -16 10 -36 18 -44 18
-7 0 -52 15 -100 34 -47 19 -104 37 -126 41 -66 10 -196 56 -216 76 -23 23
-23 24 70 178 105 174 107 179 93 193 -7 7 -12 22 -12 35 0 17 -12 28 -47 45
l-48 23 -715 2 c-393 1 -729 -2 -746 -6z m1144 -257 c13 -8 22 -25 22 -39 0
-22 -101 -196 -140 -240 -10 -11 -27 -38 -39 -60 -21 -39 -35 -61 -120 -195
-22 -36 -50 -83 -62 -105 -27 -49 -34 -55 -82 -55 -32 0 -41 5 -55 31 -9 16
-25 42 -34 57 -82 126 -107 169 -108 178 0 6 -9 19 -19 28 -11 10 -29 39 -41
64 -12 26 -31 58 -42 72 -24 31 -75 110 -111 172 -22 38 -25 51 -17 72 5 14
20 28 32 31 36 8 190 10 503 7 233 -3 294 -6 313 -18z m-919 -470 c25 -5 41
-21 78 -78 25 -39 57 -87 70 -107 13 -19 23 -42 23 -50 0 -24 -32 -48 -71 -55
-40 -6 -231 -50 -304 -70 -132 -34 -250 -81 -430 -171 -167 -84 -169 -85 -188
-102 -11 -9 -38 -27 -62 -41 -76 -45 -145 -92 -145 -99 0 -4 -15 -15 -32 -26
-18 -10 -44 -30 -58 -44 -14 -14 -59 -56 -100 -93 -111 -101 -115 -104 -200
-206 -19 -23 -47 -57 -62 -74 -54 -61 -180 -252 -231 -348 -13 -25 -31 -58
-40 -75 -9 -16 -28 -55 -41 -85 -14 -30 -29 -62 -34 -70 -31 -52 -131 -388
-148 -493 -8 -56 -24 -142 -35 -190 -15 -67 -19 -131 -20 -275 -2 -209 4 -286
31 -417 10 -49 24 -121 30 -160 6 -38 20 -97 30 -130 11 -33 26 -85 34 -115
15 -56 45 -135 95 -250 45 -102 59 -130 101 -200 21 -36 48 -82 59 -102 22
-39 133 -201 173 -252 40 -52 109 -124 217 -229 57 -56 119 -117 137 -134 18
-18 36 -33 41 -33 4 0 42 -27 83 -60 41 -33 93 -68 115 -79 22 -10 46 -25 53
-34 7 -8 27 -21 45 -28 18 -7 50 -26 71 -41 21 -15 44 -28 50 -28 6 0 45 -16
86 -36 41 -20 102 -49 135 -65 33 -16 68 -29 78 -29 10 0 43 -11 75 -24 31
-13 93 -31 137 -41 44 -9 105 -25 135 -35 88 -29 412 -54 605 -46 235 9 382
24 450 46 33 11 93 27 132 35 40 8 90 22 110 31 21 9 67 26 103 39 114 40 184
69 230 97 25 14 56 29 70 33 14 4 44 21 67 36 23 16 44 29 47 29 12 0 212 134
249 167 20 18 42 33 48 33 6 0 25 15 43 33 17 17 81 80 141 140 61 59 125 124
143 145 50 57 96 115 115 142 73 105 97 140 131 194 21 34 51 87 67 118 16 31
33 59 38 62 5 4 13 21 16 39 4 17 18 52 31 77 56 108 150 401 164 515 6 44 17
105 26 135 17 61 42 315 39 400 -4 125 -17 278 -27 315 -6 22 -19 90 -29 150
-21 120 -64 277 -110 398 -16 43 -29 85 -29 93 0 9 -11 30 -24 47 -13 18 -30
52 -38 77 -8 25 -27 63 -42 84 -14 21 -26 44 -26 50 0 17 -195 308 -240 357
-14 15 -41 46 -60 69 -101 119 -263 270 -384 360 -26 19 -62 47 -79 61 -18 15
-50 36 -72 48 -22 12 -65 37 -95 56 -96 59 -380 195 -406 195 -8 0 -51 14 -95
31 -44 17 -119 39 -167 49 -203 44 -254 58 -270 73 -15 15 -15 19 2 54 10 21
42 75 71 120 62 95 80 103 190 84 114 -20 402 -116 532 -177 28 -13 55 -24 59
-24 4 0 28 -13 53 -29 25 -16 62 -34 82 -40 20 -7 45 -21 54 -31 10 -11 23
-20 30 -20 27 0 245 -145 272 -181 7 -9 26 -22 43 -29 16 -7 30 -16 30 -21 0
-4 19 -21 43 -38 23 -16 65 -51 92 -77 28 -25 71 -66 96 -89 38 -35 190 -208
269 -305 59 -73 170 -238 170 -253 0 -6 7 -18 15 -27 46 -51 183 -340 229
-485 13 -39 30 -84 38 -100 9 -17 25 -76 37 -133 11 -56 25 -110 30 -120 27
-50 61 -393 61 -615 0 -175 -26 -478 -47 -551 -8 -28 -25 -100 -39 -159 -13
-60 -30 -120 -38 -135 -8 -15 -21 -54 -30 -87 -10 -33 -28 -85 -41 -115 -74
-171 -111 -249 -132 -280 -12 -19 -23 -39 -23 -45 0 -6 -12 -28 -27 -50 -16
-22 -37 -56 -48 -77 -40 -74 -173 -255 -239 -325 -12 -13 -34 -39 -51 -60
-123 -152 -421 -409 -599 -518 -154 -94 -422 -229 -499 -252 -29 -8 -68 -23
-87 -33 -19 -10 -68 -25 -109 -34 -40 -9 -86 -23 -102 -31 -15 -8 -69 -22
-121 -30 -51 -9 -136 -26 -188 -38 -88 -20 -120 -22 -425 -22 -281 0 -340 3
-395 17 -36 10 -108 24 -160 32 -52 8 -129 25 -170 39 -41 14 -100 30 -130 36
-30 7 -77 22 -105 35 -27 13 -61 27 -75 31 -45 12 -194 77 -222 97 -15 10 -42
24 -60 30 -18 6 -42 19 -53 29 -11 10 -40 27 -65 39 -69 32 -287 179 -327 220
-14 13 -35 32 -48 40 -79 52 -298 277 -444 455 -37 46 -160 223 -182 263 -80
144 -101 185 -137 257 -50 99 -88 192 -112 270 -10 33 -28 85 -40 115 -12 30
-28 92 -36 137 -8 45 -22 99 -30 120 -27 63 -56 376 -56 585 1 237 28 503 62
613 11 33 24 89 30 124 6 35 22 92 35 125 13 34 32 88 43 121 69 212 228 510
372 699 25 32 54 71 65 85 113 152 395 431 500 496 17 10 35 24 40 30 31 35
257 178 360 227 22 10 47 23 55 28 62 40 335 151 433 175 34 9 80 23 102 31
41 16 153 41 191 43 12 1 36 -2 53 -5z m346 -536 c14 -6 28 -21 31 -32 3 -12
4 -292 2 -623 -3 -696 8 -632 -113 -658 -123 -26 -138 -23 -180 36 -20 29 -42
66 -47 83 -6 17 -19 40 -28 51 -10 11 -25 38 -35 60 -9 22 -24 49 -34 60 -10
11 -29 38 -40 60 -12 22 -38 67 -57 100 -19 33 -48 85 -65 115 -16 30 -48 84
-69 120 -22 36 -49 84 -60 107 -11 23 -25 45 -30 48 -6 4 -22 30 -37 58 -14
29 -34 63 -44 76 -23 29 -42 96 -34 120 6 19 127 84 180 97 17 4 47 15 68 26
21 11 78 28 125 38 48 11 111 27 141 35 104 32 280 44 326 23z m610 -14 c33
-9 107 -29 165 -44 177 -47 348 -117 379 -154 19 -22 0 -71 -75 -198 -35 -59
-64 -111 -64 -116 0 -5 -13 -26 -30 -47 -16 -20 -32 -46 -36 -58 -4 -12 -16
-35 -27 -50 -11 -16 -29 -47 -42 -70 -12 -23 -39 -71 -60 -107 -21 -36 -49
-85 -62 -110 -14 -25 -31 -52 -38 -60 -8 -8 -23 -35 -35 -60 -33 -70 -67 -129
-105 -187 -33 -49 -38 -53 -75 -53 -44 0 -131 16 -171 31 -15 6 -31 22 -38 35
-8 18 -11 201 -11 629 l0 605 21 21 c21 21 28 22 133 16 61 -4 138 -14 171
-23z m-1667 -399 c17 -19 40 -54 50 -78 11 -25 25 -47 31 -51 6 -4 19 -26 30
-49 11 -23 38 -71 60 -107 49 -80 107 -182 134 -235 11 -22 30 -53 43 -68 13
-16 24 -34 24 -41 0 -7 13 -32 28 -57 16 -24 48 -78 72 -119 24 -41 54 -92 67
-113 13 -20 32 -60 43 -88 20 -51 20 -51 1 -83 -11 -18 -36 -46 -55 -64 -19
-17 -38 -38 -43 -46 -5 -9 -30 -19 -56 -22 -42 -6 -51 -4 -75 18 -15 14 -47
35 -72 47 -25 12 -79 41 -120 66 -41 25 -86 50 -99 55 -13 6 -37 22 -53 35
-16 14 -35 25 -42 25 -7 0 -31 13 -53 29 -21 15 -59 38 -84 49 -24 12 -78 42
-119 67 -41 25 -89 52 -107 60 -17 8 -35 20 -38 25 -4 6 -30 22 -58 36 -79 38
-161 92 -171 114 -15 33 2 67 90 172 184 219 452 458 515 458 18 0 37 -11 57
-35z m2560 3 c22 -18 62 -50 89 -71 139 -108 365 -348 432 -457 36 -61 25 -91
-46 -119 -17 -7 -39 -21 -49 -32 -9 -10 -21 -19 -25 -19 -4 0 -51 -26 -103
-57 -114 -69 -193 -113 -263 -147 -28 -14 -54 -30 -58 -37 -4 -6 -31 -22 -59
-35 -28 -14 -73 -39 -101 -56 -56 -35 -168 -100 -232 -134 -23 -12 -54 -31
-69 -43 -17 -13 -41 -21 -65 -21 -35 0 -46 7 -97 61 -80 85 -85 97 -67 150 9
24 28 64 44 89 68 111 101 169 101 177 0 5 13 27 30 49 16 21 30 44 30 50 0 6
12 29 27 50 15 21 37 59 50 84 13 25 42 74 64 110 22 36 46 79 53 95 8 17 31
55 50 84 20 29 36 59 36 66 0 7 7 19 16 26 9 7 26 36 39 64 28 64 69 105 105
105 17 0 44 -13 68 -32z m-3313 -852 c20 -13 60 -36 160 -91 28 -16 61 -38 75
-50 14 -12 40 -27 57 -33 18 -6 48 -22 65 -35 18 -14 44 -28 58 -32 13 -4 36
-16 50 -25 32 -22 211 -130 248 -150 15 -8 52 -28 82 -45 238 -136 254 -149
253 -208 0 -43 -44 -152 -71 -180 l-23 -22 -599 0 c-592 0 -599 0 -627 21 -19
15 -29 31 -31 55 -4 49 54 368 77 421 10 24 22 64 26 88 4 25 22 79 40 120 18
41 36 85 40 97 8 30 62 83 84 83 9 0 25 -6 36 -14z m4020 -13 c32 -34 89 -162
115 -258 10 -38 27 -95 38 -125 11 -30 28 -105 37 -167 9 -61 20 -126 25 -145
13 -42 13 -94 0 -117 -23 -44 -53 -46 -665 -46 -319 0 -587 4 -596 8 -24 12
-74 120 -86 188 -8 41 22 86 75 112 108 56 164 87 188 106 14 11 35 23 47 27
12 3 36 16 52 29 17 12 48 32 70 44 22 12 69 40 105 61 119 70 247 140 258
140 6 0 22 9 34 21 37 34 231 147 255 148 12 1 34 -11 48 -26z m-1860 -281
c135 -37 240 -105 354 -226 58 -60 102 -137 142 -246 30 -80 32 -93 33 -230 1
-142 0 -147 -33 -235 -70 -185 -201 -329 -381 -420 -90 -46 -171 -60 -320 -59
-210 2 -344 58 -490 205 -105 105 -149 175 -190 304 -31 96 -32 105 -27 225 4
106 9 138 35 212 51 145 100 210 277 367 61 53 192 103 330 125 58 9 201 -3
270 -22z m-1188 -837 c19 -14 63 -112 78 -177 11 -44 -19 -93 -73 -117 -54
-25 -153 -81 -173 -98 -8 -6 -34 -22 -59 -36 -25 -13 -76 -43 -115 -67 -38
-24 -88 -52 -110 -62 -22 -11 -69 -37 -105 -58 -36 -21 -90 -53 -120 -70 -151
-86 -235 -136 -281 -166 -19 -13 -40 -24 -47 -24 -18 0 -80 59 -88 83 -3 12
-21 56 -39 98 -18 42 -37 98 -41 125 -4 26 -16 68 -26 92 -21 47 -66 275 -75
378 -5 58 -4 61 27 87 l32 27 597 0 c513 0 600 -2 618 -15z m3247 -14 c17 -16
26 -35 26 -55 0 -52 -60 -376 -80 -430 -10 -28 -24 -71 -30 -96 -7 -25 -25
-72 -40 -106 -16 -33 -32 -72 -35 -87 -7 -28 -67 -87 -87 -87 -7 0 -28 11 -47
23 -20 13 -70 43 -111 67 -41 24 -95 56 -119 72 -25 15 -50 28 -57 28 -7 0
-25 11 -41 24 -15 13 -48 33 -73 45 -25 11 -74 39 -110 61 -36 22 -108 63
-160 91 -52 29 -108 63 -123 76 -16 13 -34 23 -40 23 -7 0 -30 12 -52 27 -22
15 -61 37 -86 49 -81 38 -87 98 -21 233 19 39 34 58 52 63 14 3 291 6 617 5
l591 -2 26 -24z m-1329 -524 c44 -27 100 -60 125 -74 25 -13 74 -42 110 -63
36 -22 90 -54 120 -70 30 -17 84 -49 120 -70 36 -22 83 -49 105 -60 22 -11 69
-38 105 -60 36 -22 90 -54 120 -71 157 -87 169 -99 151 -151 -10 -28 -75 -117
-131 -178 -14 -15 -52 -58 -85 -95 -56 -62 -195 -188 -292 -263 -39 -30 -83
-52 -103 -52 -20 0 -70 54 -94 102 -15 29 -47 85 -71 123 -24 39 -53 86 -63
105 -10 19 -44 79 -75 132 -31 54 -57 102 -57 106 0 5 -13 26 -30 48 -16 21
-30 44 -30 49 0 6 -12 28 -27 50 -14 21 -38 62 -53 90 -34 65 -66 120 -96 164
-13 20 -24 40 -24 44 0 5 -7 25 -16 44 -21 42 -12 62 63 141 51 53 98 76 133
63 8 -3 51 -27 95 -54z m-1618 -7 c90 -96 88 -91 63 -158 -12 -31 -28 -64 -35
-72 -7 -8 -26 -37 -41 -65 -37 -68 -88 -157 -134 -235 -22 -36 -45 -76 -51
-90 -7 -14 -27 -50 -45 -80 -77 -135 -179 -308 -199 -340 -12 -19 -33 -55 -46
-79 -13 -24 -36 -53 -51 -64 -22 -17 -31 -18 -58 -8 -17 6 -46 22 -63 36 -201
163 -345 303 -443 432 -77 100 -87 119 -80 148 6 24 120 106 166 120 14 4 34
15 45 25 11 10 43 30 70 44 28 15 97 54 155 88 58 34 130 75 161 92 67 37 141
81 189 111 37 23 111 65 170 96 19 10 46 27 60 38 16 13 40 21 68 21 39 0 47
-5 99 -60z m455 -261 c85 -20 91 -23 104 -55 11 -27 14 -141 14 -638 l0 -606
-25 -16 c-22 -14 -42 -16 -124 -11 -53 4 -133 16 -177 28 -43 12 -109 27 -146
35 -37 7 -93 24 -125 38 -32 13 -78 29 -103 36 -54 14 -151 63 -168 83 -17 20
-2 87 31 135 13 20 43 71 67 112 23 41 51 87 62 103 10 15 32 52 48 82 60 111
88 161 123 220 20 33 47 81 61 107 14 26 30 50 36 53 6 4 22 30 35 58 75 158
143 257 177 257 11 0 61 -9 110 -21z m645 -14 c30 -37 76 -117 119 -205 15
-30 34 -64 44 -75 18 -23 160 -268 160 -279 0 -3 16 -29 35 -57 19 -28 35 -56
35 -61 0 -5 13 -28 29 -51 15 -23 47 -76 71 -117 24 -41 55 -92 69 -114 19
-28 25 -52 26 -89 0 -52 0 -52 -50 -79 -27 -16 -75 -35 -105 -44 -30 -8 -80
-26 -111 -40 -31 -13 -89 -30 -130 -38 -41 -8 -87 -19 -102 -25 -43 -17 -204
-41 -271 -41 -105 0 -96 -57 -96 641 0 373 4 618 10 634 11 28 35 40 125 59
98 22 111 20 142 -19z m-825 -2122 c54 -15 115 -17 444 -17 291 0 385 3 397
12 8 7 37 15 63 18 40 5 54 2 74 -14 21 -17 26 -31 30 -94 3 -40 3 -135 0
-211 -7 -182 6 -172 -222 -180 -175 -6 -865 1 -905 9 -35 7 -43 53 -43 260 l0
193 26 20 c32 25 54 26 136 4z m2103 -745 c33 -15 38 -36 33 -157 -3 -89 -6
-102 -27 -125 l-25 -26 -1658 0 c-912 1 -1665 3 -1674 7 -31 12 -44 59 -44
165 0 108 3 118 35 136 29 17 3323 17 3360 0z"></path>
<path d="M3494 5483 c-20 -21 -44 -56 -55 -78 -73 -154 -91 -168 -253 -192
-97 -15 -103 -17 -138 -55 -20 -22 -40 -48 -43 -57 -7 -24 49 -108 125 -187
40 -41 61 -72 65 -95 4 -20 -1 -90 -10 -157 -16 -117 -16 -123 2 -158 10 -20
36 -46 59 -59 l40 -24 120 59 c65 33 129 60 142 60 24 0 129 -49 173 -82 15
-12 52 -23 89 -27 l62 -8 30 41 c16 23 36 45 44 49 15 8 20 37 6 37 -5 0 -16
49 -26 110 -23 136 -21 144 87 247 49 46 83 87 85 102 12 63 6 99 -21 134 -27
36 -61 46 -194 60 -23 3 -56 15 -72 27 -28 20 -88 122 -106 180 -4 14 -26 44
-48 68 -36 37 -47 42 -85 42 -37 0 -48 -5 -78 -37z m124 -457 c56 -29 63 -45
47 -111 -17 -74 -40 -95 -105 -95 -53 0 -70 13 -95 73 -24 58 -19 81 23 116
41 34 86 40 130 17z"></path>
</g>
</svg>